<svg viewBox="0 0 500 500" xmlns="http://www.w3.org/2000/svg"><g fill="none" fill-rule="evenodd"><path fill="#fefb00" d="M34 155.57 245.13 421 455 155.57 386.43 67.6 110.9 67.6z"/><path d="m164.19 285.27l86.07 99.86 192.92-225.17-36.464-43.17c6.32 13.315 2.386 29.838-9.885 38.701l-12.289 8.871-51.11-75.2 5.305-3.829h-211.87l-70.69 74.63 88.973 103.23 20.305-46.35c.236.422.271.901.541 1.299 2.823 4.154 6.841 7.07 11.479 8.575-.454 1.398-.922 2.793-1.183 4.271-1.425 8.08.298 16.201 4.848 22.914 4.552 6.698 11.379 11.162 19.238 12.548 1.537.271 3.085.315 4.621.342-.202 4.84.684 9.734 3.565 13.974.247.363.567.648.831 1l-45.21 3.509m-153.01-132.04l238.82 288.53 237.39-288.53-77.56-95.63h-311.67l-86.98 95.63m214.45 106.26c-3.394 2.448-4.239 7.236-1.886 10.697 2.35 3.476 7 4.297 10.402 1.834l135.2-97.49-8.528-12.541-135.18 97.5m-42.521-62.31c-3.394 2.448-4.239 7.236-1.886 10.697 2.352 3.462 7.01 4.282 10.402 1.834l135.2-97.5-8.515-12.531-135.2 97.5m152.36-73.39l-135.18 97.51c-6.786 4.882-8.463 14.474-3.772 21.394 4.705 6.923 14.01 8.595 20.82 3.656l135.18-97.48-17.04-25.07" stroke="#000" stroke-width="8" fill="#f54f33"/></g></svg>