<?xml version='1.0' encoding='utf-8'?>
<svg xmlns="http://www.w3.org/2000/svg" viewBox="0 0 131.84 164.31" id="svg2" height="164.31mm" width="131.84mm" version="1.0"> <metadata id="metadata16"> </metadata> <defs id="defs4"> <clipPath id="clipEmfPath1" clipPathUnits="userSpaceOnUse"> <path id="path7" d="m 1.499,1.3491 467.387,0 0,582.2099 -467.387,0 z"/> </clipPath> <pattern y="0" x="0" height="6" width="6" patternUnits="userSpaceOnUse" id="EMFhbasepattern"/> </defs> <path transform="scale(0.28222222,0.28222222)" id="path10" d="M 213.232,5.65871 C 203.339,1.0493 188.986,-0.0749498 177.219,6.55811 159.418,19.4495 162.978,35.6012 162.529,51.528 c -40.885,2.1361 -42.197,37.0252 -36.951,53.926 -13.453,6.184 -26.232,13.267 -29.155,21.324 -8.8816,3.035 -15.1774,10.043 -14.6902,14.69 l -8.0571,7.345 c -9.2563,-1.949 -16.6014,4.797 -16.9012,8.732 -13.0038,15.776 -9.3687,15.851 -7.3826,20.386 2.7732,12.104 12.2918,19.075 22.0728,23.197 14.2404,0.3 15.5895,-11.13 16.7138,-19.262 5.3589,-3.448 10.3805,-7.083 16.0765,-10.343 5.696,-3.298 10.98,-1.424 18.101,-9.407 11.392,-3.972 19.524,-9.406 23.646,-19.711 2.474,8.581 9.182,19.262 15.89,25.52 -1.462,14.053 17.463,29.081 15.327,41.035 -13.753,22.26 -19.3,44.258 -21.099,67.417 -30.916,8.545 -34.214,39.124 -45.007,61.497 -7.307,7.607 -13.4908,20.649 -15.1772,25.708 -11.5423,6.932 -15.1024,23.984 -17.4633,34.926 -9.6311,7.533 -11.8046,11.617 -13.4535,21.024 -2.4734,4.159 -10.0808,4.309 -7.3826,12.404 -15.2523,25.708 -24.3587,73.676 -23.197,77.573 -11.3549,11.505 -5.134,14.54 -6.633,20.836 -5.8461,0.862 -1.6489,6.408 -11.2425,22.522 -10.38054,6.371 -12.06691,8.32 -12.85388,13.529 -3.822445,9.481 -0.1499,13.116 1.83627,16.489 l 39.49851,0 c 10.4181,-0.113 5.8836,-2.811 10.4555,-4.347 l 14.99,-1.087 c 3.1854,-5.396 -0.1874,-10.081 0.2249,-14.99 2.0611,-9.706 -2.4359,-17.576 -3.6726,-26.345 2.8481,-6.558 -0.6371,-8.394 -1.5739,-13.303 10.1932,-5.397 7.9821,-20.874 14.4278,-31.667 10.0058,-2.848 10.1932,-11.055 16.9387,-18.063 12.5168,-10.455 5.8458,-10.605 8.7688,-15.927 10.006,-1.349 6.933,-10.717 6.633,-16.076 10.156,-9.107 8.62,-14.953 9.631,-24.059 9.781,-7.72 15.478,-21.773 25.034,-31.217 9.556,-9.443 21.735,-13.378 32.378,-25.445 30.205,40.96 78.248,63.22 136.783,45.869 7.87,11.992 14.878,15.14 21.736,21.248 3.373,7.308 7.795,12.704 13.791,16.864 -3.86,9.706 6.333,23.197 18.175,24.996 5.359,9.369 15.44,14.54 23.159,21.81 4.31,13.566 12.592,30.88 19.263,35.789 -0.188,7.795 2.435,8.544 3.672,12.816 -3.747,4.535 -2.586,20.536 0.487,24.809 l 2.511,13.078 c 3.26,5.322 6.783,4.347 12.592,5.022 l 31.591,-1.499 c 7.42,-6.633 4.497,-9.294 5.134,-15.215 -2.286,-5.771 -3.71,-8.694 -8.282,-17.013 -3.56,-6.484 -0.45,-9.069 -6.408,-14.653 -1.986,-3.298 -2.548,-17.089 -7.345,-23.872 -24.059,-44.07 -21.623,-59.81 -32.116,-72.514 1.986,-6.783 -0.937,-8.207 -4.572,-9.181 -6.521,-10.568 -21.885,-23.047 -33.09,-27.057 -1.987,-9.893 -10.568,-11.617 -13.754,-23.422 31.479,-36.088 38.075,-65.169 36.726,-108.265 -4.685,-38.711 -22.036,-76.711 -68.205,-104.855 -1.686,-10.268 -9.706,-20.273 -14.203,-30.317 -0.787,-22.597 -11.43,-34.702 -30.504,-47.4805 l -18.55,-11.917 C 262.812,66.2182 242.538,61.6837 227.435,49.2046 227.21,24.5461 228.185,16.489 213.232,5.65871 Z" clip-path="url(#clipEmfPath1)" style="fill:#000000;fill-opacity:1;fill-rule:evenodd;stroke:none"/> <path id="path12" d="m 80.168044,67.497678 -2.919024,9.275233 -9.444567,0 7.641167,5.732498 -2.919024,9.275233 7.641448,-5.732215 7.646529,5.732215 -2.919024,-9.275233 7.641449,-5.732498 -9.449929,0 z m 0,-0.592385 c 7.630725,0 13.81252,6.197883 13.81252,13.833687 0,7.641449 -6.181795,13.833969 -13.81252,13.833969 -7.625644,0 -13.81252,-6.19252 -13.81252,-13.833969 0,-7.635804 6.186876,-13.833687 13.81252,-13.833687 z" style="fill:#000000;fill-opacity:1;fill-rule:evenodd;stroke:none"/> </svg>
