<?xml version="1.0" standalone="yes"?>
<svg xmlns="http://www.w3.org/2000/svg" xmlns:xlink="http://www.w3.org/1999/xlink" xmlns:svg="http://www.w3.org/2000/svg" xmlns:dc="http://purl.org/dc/elements/1.1/" xmlns:cc="http://web.resource.org/cc/" xmlns:rdf="http://www.w3.org/1999/02/22-rdf-syntax-ns#" width="1123" height="890">
<path style="fill:#ffc90f; stroke:none; opacity:0" d="M0 0L0 890L1123 890L1123 0L0 0z"/>
<path style="fill:#111111; stroke:none;" d="M487 348L487 349C469.345 351.644 450.7 362.072 434 368.424C430.992 369.568 418.222 372.588 418.921 376.883C419.522 380.572 428.09 382.601 431 383.85C443.296 389.126 455.662 394.247 468 399.424C502.024 413.702 535.977 428.147 570 442.424C587.75 449.873 606.268 460.551 625 465L625 466C610.858 468.513 596.305 476.98 583 482.397C580.271 483.507 570.254 485.784 570.921 489.883C571.697 494.651 587.008 498.45 591 500.15C612.249 509.2 633.78 517.596 655 526.719C722.631 555.795 791.117 582.939 859 611.424C874.977 618.129 890.954 624.859 907 631.397C909.639 632.472 920.714 638.913 922.824 635.356C925.254 631.26 910.715 620.783 908 618.424C889.621 602.46 872.068 585.489 854 569.17C835.264 552.247 816.723 535.104 798 518.17C770.328 493.142 743.098 467.547 715 443L753 430.053L765.079 423.816L757 415.667L729 396.576L611 316C621.843 312.309 632.407 307.36 643 302.989C645.664 301.89 652.592 300.205 653.079 296.775C653.556 293.412 649.05 290.065 646.999 288L625 266C599.484 240.484 573.509 215.509 548 190C541.599 183.599 528.29 164.424 519 163.644C513.611 163.191 506.014 167.221 501 169.053C488.412 173.653 475.714 178.094 463 182.333C415.275 198.245 367.043 213.991 320 231.808C304.858 237.543 289.347 242.502 274 247.667C271.306 248.574 260.255 250.943 260.921 254.909C261.563 258.726 270.943 260.973 274 262.2C287.352 267.557 300.643 273.057 314 278.4C353.425 294.17 392.579 310.618 432 326.4C449.402 333.366 468.534 344.82 487 348z"/>
<path style="fill:#ff6459; stroke:none;" d="M270 254L270 255C327.691 277.382 384.542 302.016 442 325C455.687 330.475 469.457 335.897 483 341.719C485.508 342.797 495.056 345.089 494.369 348.883C493.598 353.138 481.475 355.618 478 357C462.646 363.103 441.156 367.054 428 377C478.59 400.944 531.517 420.611 583 442.579C595.306 447.83 607.597 453.184 620 458.201C622.893 459.371 631.725 461.529 632.369 465.12C633.077 469.068 623.603 471.358 621 472.4C607.209 477.916 593.324 485.082 579 489L579 490C609.866 500.442 639.949 514.965 670 527.576C719.586 548.383 769.414 568.617 819 589.424C847.887 601.546 877.805 617.741 908 626C894.943 608.26 873.365 593.612 857 578.83C824.229 549.23 792.34 518.536 759 489.576C746.127 478.393 733.278 466.821 721 454.989C718.337 452.423 708.939 446.496 709.631 442.274C710.211 438.736 718.228 437.269 721 436.333C733.417 432.138 745.586 427.2 758 423L758 422C716.878 399.106 679.039 367.984 640 341.67C630.977 335.588 622.052 329.372 613 323.333C610.663 321.774 604.037 318.728 604.631 315.184C605.187 311.869 612.379 310.092 615 309.011C625.64 304.62 636.268 300.162 647 296L617 265L552 201L529 178L518 169.502L498 175.344L451 191.667L321 236.667L270 254z"/>
</svg>
