<?xml version="1.0" encoding="UTF-8" standalone="no"?>
<!--part of the matt icon theme by sixsixfive released under CC0 (https://creativecommons.org/publicdomain/zero/1.0/) on openclipart-->
<svg xmlns="http://www.w3.org/2000/svg" xmlns:xlink="http://www.w3.org/1999/xlink" viewBox="0 0 128 128">
 <defs id="0">
  <linearGradient id="B">
   <stop id="Q"/>
   <stop id="R" offset="1" stop-opacity="0"/>
  </linearGradient>
  <linearGradient id="C">
   <stop id="S" stop-opacity="0.33"/>
   <stop id="T" offset="1" stop-opacity="0"/>
  </linearGradient>
  <linearGradient id="D">
   <stop id="U" stop-color="#fff"/>
   <stop id="V" offset="1" stop-color="#fff" stop-opacity="0"/>
  </linearGradient>
  <linearGradient id="E">
   <stop id="W" stop-color="#0057ae"/>
   <stop id="X" offset="1" stop-color="#00438a"/>
  </linearGradient>
  <linearGradient id="F">
   <stop id="Y" stop-color="#eee"/>
   <stop id="Z" offset="1" stop-color="#ddd"/>
  </linearGradient>
  <radialGradient cx="36.794" cy="62.08" r="55.766" id="G" xlink:href="#F" gradientUnits="userSpaceOnUse" gradientTransform="matrix(0.7667623,-0.104838,0.05399168,0.3948832,10.082408,-2.9781214)"/>
  <radialGradient cx="28.02" cy="16.985" r="62.2" id="H" xlink:href="#E" gradientUnits="userSpaceOnUse" gradientTransform="matrix(1.5841217,-0.2442028,0.1394764,0.9047707,-16.750946,26.630343)"/>
  <filter x="-0.012" y="-0.396" width="1.025" height="1.792" color-interpolation-filters="sRGB" id="I">
   <feGaussianBlur stdDeviation="0.59926" id="a"/>
  </filter>
  <linearGradient y1="29.321" x2="0" y2="25.688" id="J" xlink:href="#B" gradientUnits="userSpaceOnUse"/>
  <radialGradient cx="52.981" cy="-3.245" r="53.55" id="K" xlink:href="#D" gradientUnits="userSpaceOnUse" gradientTransform="matrix(1.8022603,0.02656491,-0.01237284,0.8394186,-30.322336,8.4010665)"/>
  <radialGradient cx="58" cy="-21.826" r="59.896" id="L" xlink:href="#D" gradientUnits="userSpaceOnUse" gradientTransform="matrix(1.9737017,-0.04274788,0.01357032,0.6265521,-54.434832,27.088068)"/>
  <linearGradient y1="109.56" x2="0" y2="101.48" id="M" xlink:href="#C" gradientUnits="userSpaceOnUse"/>
  <radialGradient cx="65.14" cy="106.7" r="63.15" id="N" xlink:href="#B" gradientUnits="userSpaceOnUse" gradientTransform="matrix(1,0,0,0.05882353,0,100.42419)"/>
  <filter color-interpolation-filters="sRGB" id="O">
   <feGaussianBlur stdDeviation="1.88808" id="b"/>
  </filter>
  <filter x="-0.02" y="-0.345" width="1.041" height="1.689" color-interpolation-filters="sRGB" id="P">
   <feGaussianBlur stdDeviation="1.06662" id="c"/>
  </filter>
 </defs>
 <path d="m 128.29104,106.70071 a 63.154858,3.7149916 0 1 1 -126.3097129,0 63.154858,3.7149916 0 1 1 126.3097129,0 z" transform="matrix(1.1470588,0,0,1,-10.715034,-0.7429983)" id="1" opacity="0.541" fill="url(#N)" filter="url(#P)"/>
 <path d="m 17.78125,11.09375 c -3.388298,0 -6.1875,2.799208 -6.1875,6.1875 l 0,3.9375 c -2.9224034,0.486036 -5.21875,2.95177 -5.21875,6 l 0,76.09375 c 6e-7,3.38829 2.7991985,6.1875 6.1875,6.1875 l 103.8125,0 c 3.3883,0 6.21875,-2.77627 6.21875,-6.1875 l 0,-76.09375 c 0,-3.411225 -2.83045,-6.1875 -6.21875,-6.1875 l -59.78125,0 0,-3.75 c 0,-3.388299 -2.799205,-6.1875 -6.1875,-6.1875 l -32.625,0 z" transform="matrix(0.9652278,0,0,0.9652278,2.9590038,0.385754)" id="2" fill="#898989"/>
 <path d="m 20.114824,13.348291 c -2.058203,0 -3.710094,1.651896 -3.710094,3.710095 l 0,5.881857 -1.327188,0 c -2.058204,0 -3.710095,1.651896 -3.710095,3.710094 l 0,73.447803 c 0,2.05819 1.651891,3.71009 3.710095,3.71009 l 100.202718,0 c 2.05819,0 3.74026,-1.6519 3.74026,-3.71009 l 0,-73.447803 c 0,-2.058198 -1.68206,-3.710094 -3.74026,-3.710094 l -59.964784,0 0,-5.881857 c 0,-2.058198 -1.651901,-3.710095 -3.710094,-3.710095 l -31.490558,0 z" id="3" fill="url(#G)"/>
 <path d="m 20.125,14.625 c -1.366107,0 -2.4375,1.071396 -2.4375,2.4375 l 0,5.875 a 1.2868764,1.2868764 0 0 1 -1.28125,1.28125 l -1.34375,0 c -1.366108,0 -2.40625,1.058373 -2.40625,2.4375 l 0,73.4375 c 0,1.37912 1.040145,2.4375 2.40625,2.4375 l 100.21875,0 c 1.36609,0 2.46875,-1.08444 2.46875,-2.4375 l 0,-73.4375 c 0,-1.353076 -1.10265,-2.4375 -2.46875,-2.4375 l -59.96875,0 A 1.2868764,1.2868764 0 0 1 54.03125,22.9375 l 0,-5.875 c 10e-7,-1.366097 -1.071406,-2.4375 -2.4375,-2.4375 l -31.46875,0 z" id="4" fill="none" stroke="url(#K)" stroke-linejoin="bevel" stroke-linecap="round" stroke-width="2"/>
 <path d="M 122.21875,25.687905 6.375,25.711212 l 0,3.338334 c 6e-7,0.148649 2.7991985,0.271454 6.1875,0.271454 l 103.8125,0 c 3.3883,0 6.21875,-0.121799 6.21875,-0.271454 l 0,-3.338334 c 0,-0.0075 -0.0174,-0.0146 -0.0312,-0.02194 -0.11616,-3.06e-4 -0.22602,-0.0014 -0.34375,-0.0014 z" transform="matrix(0.9652278,0,0,1.3063538,2.9590038,-9.6164018)" id="5" opacity="0.429" fill="url(#J)" filter="url(#I)"/>
 <path d="M 122.21875,26.6875 4.875,27.21875 c -3.2470681,0 -5.9375,2.690433 -5.9375,5.9375 a 2.4088386,2.4088386 0 0 0 0,0.125 l 3.65625,70.34375 0,0.125 0.03125,0 c 0.072883,3.21136 2.7347163,5.8125 5.9375,5.8125 l 111.8125,0 c 3.22599,0 5.90286,-2.65624 5.9375,-5.875 2.3e-4,-0.021 0,-0.0414 0,-0.0625 l 1.84375,-70.9375 a 2.4088386,2.4088386 0 0 0 0,-0.0625 c 0,-3.247067 -2.69043,-5.9375 -5.9375,-5.9375 z" transform="matrix(0.9652278,0,0,0.9652278,2.9590038,0.385754)" id="6" fill="#00316e"/>
 <path d="M 7.6709722,28.976586 120.91382,28.452911 c 1.89221,0 3.41556,1.523335 3.41556,3.415548 l -1.7598,68.541721 c 0,1.89221 -1.52334,3.41554 -3.41555,3.41554 l -107.945208,0 c -1.8922133,0 -3.4155458,-1.52333 -3.4155458,-3.41554 L 4.2554238,32.392135 c 0,-1.892214 1.5233351,-3.415549 3.4155484,-3.415549 z" id="7" fill="url(#H)"/>
 <path d="m 120.90625,28.4375 -20.6875,0.09375 c 0.45252,0.65293 0.64181,1.023377 -0.125,1.3125 -1.3498,0.508845 -1.234539,-0.0013 -1.46875,-0.125 -0.16851,-0.0889 -0.157944,-0.663906 -0.1875,-1.1875 l -2.53125,0.03125 c 0.614016,0.430873 1.175975,-0.06564 0.59375,0.71875 -0.712683,0.959762 -2.856993,0.874592 -3.40625,0.5625 -0.549298,-0.312416 -0.356709,0.184025 -1.375,-0.375 C 90.701097,28.909661 90.948826,28.375057 89.90625,29 c -1.042573,0.624941 -1.304979,1.601232 -1.78125,1.28125 -0.476285,-0.319981 -1.40174,0.649913 -1.8125,0.25 -0.410829,-0.400561 -1.878684,-0.249895 -2.125,0.21875 -0.246994,0.46839 -1.131458,0.505663 -2.3125,1.21875 -1.181071,0.712763 -0.876259,0.161686 -2.28125,1.5625 -1.405674,1.400559 -2.187217,2.50058 -2.78125,1.75 -0.594649,-0.750187 -3.510656,-1.854588 -2.4375,-2.1875 1.073188,-0.33259 1.550094,-0.825559 2.1875,-0.375 0.637404,0.45056 1.548726,0.224217 1.65625,-0.15625 0.108174,-0.380534 0.734725,-0.808999 -0.1875,-1.15625 -0.921945,-0.347607 -0.934414,-0.07015 -2.375,-0.4375 -1.440941,-0.367637 -0.07032,-0.341899 -2,-0.4375 -1.929313,-0.09531 -2.723766,-0.156921 -3.25,-0.25 -0.525923,-0.09311 -1.262274,0.122367 -2,0.125 -0.738373,0.0027 -1.256026,-0.109916 -1.90625,0.03125 -0.649577,0.1411 -1.035021,0.06419 -1.84375,0.8125 -0.808718,0.748313 -1.43758,1.084621 -1.96875,1.65625 -0.531171,0.571631 -1.943194,1.745424 -2.34375,2.15625 -0.400598,0.410501 -1.836894,1.765201 -1.9375,2.21875 -0.100608,0.453548 0.241692,0.772385 -0.3125,1.125 -0.554193,0.352616 -1.131642,0.41281 -1.5625,0.53125 -0.430861,0.118439 -0.07477,-0.650906 -0.4375,0.125 -0.362412,0.775873 0.04777,3.371979 0.375,2.96875 0.327219,-0.40323 -0.0018,-1.523143 1.71875,-0.59375 1.720469,0.928745 2.717406,0.657353 2.75,1.6875 0.03293,1.030109 1.206233,0.858258 1.375,1.0625 0.168688,0.203597 0.84375,-0.40625 0.84375,-0.40625 0,4e-6 1.490453,-1.176389 1.4375,-1.6875 -0.05299,-0.511431 0.875,-1.78125 0.875,-1.78125 2e-6,10e-7 -0.768068,-0.300767 -0.84375,-1.03125 -0.07565,-0.73016 0.117471,-0.973171 0.1875,-1.71875 0.07038,-0.745288 -0.797617,0.08407 1.25,-1.53125 2.047038,-1.614604 2.28125,-0.6875 2.28125,-0.6875 -10e-7,-10e-7 0.319697,0.274079 0,0.75 -0.31965,0.476245 -0.869058,1.714162 -1,1.875 -0.131192,0.161518 0.791493,1.256541 1.15625,1.21875 0.365401,-0.03786 1.085262,-0.433843 1.53125,-0.40625 0.446009,0.02792 1.140823,-0.310838 1.375,-0.1875 0.234499,0.123305 0.796296,0.502988 0.46875,0.90625 -0.327264,0.402906 -1.088599,0.928972 -1.6875,0.84375 -0.599872,-0.08512 -1.600296,-1.032979 -0.9375,0.375 0.66281,1.407977 0.133488,1.840093 -0.3125,1.8125 -0.44533,-0.02766 -1.478284,-0.674184 -1.21875,0.40625 0.259827,1.080074 -0.749374,1.946022 -0.96875,1.96875 -0.219363,0.02272 -0.6875,0 -0.6875,0 -4e-6,-10e-7 -0.666492,-0.0065 -1.03125,0.03125 -0.365402,0.03786 -1.029996,0.466167 -1.21875,0.78125 -0.189117,0.314792 -0.509924,0.118426 -0.875,0.15625 -0.365078,0.03782 -0.06688,-0.429651 -0.8125,-0.5 -0.745291,-0.07039 -1.185915,-0.181203 -1.59375,0.15625 -0.408156,0.337483 -1.05992,0.563755 -1.375,0.375 -0.31476,-0.188785 0.0857,-0.759548 -0.46875,-0.40625 -0.553865,0.35258 -0.913551,1.216465 -1.125,1.3125 -0.01322,0.006 0.0054,0.02719 0,0.03125 0.116098,0.0013 0.43299,-0.06013 -0.21875,0.0625 -0.868919,0.164154 -1.201683,0.433871 -1.625,0.625 -0.42326,0.191777 0.24199,0.999691 -0.53125,1.375 -0.77324,0.375311 -0.264256,-0.365425 -1,0.375 -0.735349,0.74104 -0.809577,1.365509 -1.09375,1.46875 -0.284797,0.103634 -0.193844,0.233867 -0.84375,0.375 -0.649909,0.14113 -0.579333,0.201592 -0.9375,0.3125 -0.35751,0.110844 0.09991,0.219359 -0.71875,0.15625 -0.818948,-0.06275 -1.363787,0.285566 -1.1875,0.5625 0.176287,0.276934 2.958908,0.798633 0.90625,0.9375 -2.052658,0.138866 -1.343354,0.440826 -0.875,0.6875 0.468683,0.246639 0.710526,0.511888 0.9375,0.5625 0.226929,0.05029 0.6875,0.90625 0.6875,0.90625 10e-7,-10e-7 0.562089,-0.143009 0.25,0.40625 -0.312097,0.54926 0.234787,0.648425 -0.0625,1.34375 -0.296959,0.695295 -0.348063,0.261212 -0.625,0.4375 -0.276969,0.175971 -0.68201,0.698884 -1.53125,0.34375 -0.84892,-0.355174 -1.448863,-0.494469 -2.40625,-0.46875 -0.957126,0.02504 -0.302017,-0.203867 -0.90625,0.375 -0.604437,0.579875 -0.703932,1.194197 -0.5625,1.84375 0.141092,0.64958 0.298952,1.507598 0.125,1.96875 -0.173659,0.460788 -0.120077,0.920125 0.09375,1.5625 0.214441,0.641977 0.6875,0.875 0.6875,0.875 0,-1.2e-5 1.023353,0.0431 1.25,0.09375 0.226615,0.05033 0.659327,-0.210478 1.28125,0.09375 0.62231,0.304851 1.211597,0.382497 1.53125,-0.09375 0.319688,-0.475919 1.731647,-1.141449 2.125,-1.625 0.392674,-0.483801 0.670721,-0.646771 0.40625,-1.0625 -0.264471,-0.415728 0.282608,-1.586878 0.625,-1.84375 0.342382,-0.256873 1.125,-0.5625 1.125,-0.5625 l 0.75,-1.40625 c -10e-7,-2e-6 0.627316,-0.879263 1,-0.84375 0.372643,0.03519 2.494087,0.559431 2.25,-0.375 -0.244436,-0.93473 0.02438,-1.248635 0.28125,-0.90625 0.256871,0.342382 0.8125,0.125 0.8125,0.125 10e-7,5e-6 0.289508,-0.165103 0.53125,0.03125 0.241711,0.196031 0.632666,1.107954 1.09375,1.28125 0.461141,0.173953 0.84877,0.353343 1.15625,0.46875 0.307231,0.116096 0.581311,-0.07588 1.21875,0.375 0.637123,0.450923 1.248398,0.695052 1.34375,0.90625 0.09636,0.211415 0.65625,0.6875 0.65625,0.6875 4e-6,9e-6 0.553246,0.06748 0.4375,0.375 -0.115767,0.307194 -0.774691,1.285192 -1.125,1.46875 -0.350274,0.183896 -1.332868,-0.03581 -0.9375,0.21875 0.395019,0.254276 0.95993,0.58581 1.15625,0.34375 0.196678,-0.241778 1.4375,-1.84375 1.4375,-1.84375 -10e-7,10e-7 -0.09009,0.07099 -0.0625,-0.375 0.02798,-0.445366 -0.0756,-0.96244 0.3125,-0.78125 0.387807,0.18155 0.634231,0.463446 0.75,0.15625 0.115749,-0.307526 0.263099,-0.16256 -0.125,-0.34375 -0.38814,-0.181516 -1.397762,-1.347404 -1.84375,-1.375 -0.446009,-0.02792 -1.59375,-0.65625 -1.59375,-0.65625 1e-5,-10e-7 -0.240539,-0.187615 -0.8125,-0.71875 -0.571985,-0.531463 -0.706577,-0.378762 -0.90625,-0.875 -0.198663,-0.496016 -0.725197,-1.094003 0.09375,-1.03125 0.818958,0.06275 1.380348,0.512262 2.15625,0.875 0.775905,0.362743 0.672435,0.535921 1.375,0.90625 0.702568,0.370339 0.809279,0.782189 1.3125,0.65625 0.503542,-0.125974 1.119383,0.186279 1.1875,0.84375 0.06811,0.65747 0.307558,1.368773 0.46875,1.5 0.161517,0.131192 0.604635,0.379357 0.78125,0.65625 0.176285,0.276937 0.563523,0.980604 0.8125,1.25 0.249639,0.269337 0.461845,0.46979 0.71875,0.8125 0.256874,0.342381 0.297039,-0.09241 0.53125,0.03125 0.234508,0.1233 0.530259,0.01082 0.5,-0.28125 -0.03026,-0.292058 -0.03125,-0.8125 -0.03125,-0.8125 0,10e-7 1.02598,-0.383903 0.71875,-0.5 -0.307519,-0.115746 -1.293079,-0.919095 -1.25,-1.21875 0.04276,-0.299632 -0.09107,-0.878978 0.28125,-0.84375 0.372935,0.03483 0.819553,0.667698 1.5625,0 0.742944,-0.6677 1.639073,-1.063061 1.4375,-0.15625 -0.200937,0.906735 0.194005,1.011262 0.21875,1.96875 0.02571,0.957386 0.37308,0.635305 0.9375,1.09375 0.564098,0.458488 0.932328,0.485863 1.3125,0.59375 0.380571,0.108499 0.938905,-0.01243 1.53125,0 0.592019,0.01246 0.942155,-0.34337 1.46875,-0.25 0.52592,0.09311 1.671711,-0.248628 1.90625,-0.125 0.234496,0.123301 1.061856,-0.378573 1.1875,0.125 0.126,0.503879 0.347976,-0.12878 0.25,1.0625 -0.09798,1.19127 -0.3125,2.03125 -0.3125,2.03125 -0.644574,1.617223 -0.892161,2.014123 -1.25,2.125 -0.35719,0.110801 -0.554043,0.348685 -1.21875,0.34375 -0.66506,-0.0052 -1.465268,0.151921 -2.4375,0.03125 -0.972256,-0.120999 -2.661915,0.487774 -3.4375,0.125 -0.77587,-0.362411 -1.758304,0.121908 -2.25,-0.34375 -0.491085,-0.466047 -1.239856,-0.300736 -1.5625,-0.5625 -0.322317,-0.261809 -0.52732,-1.074825 -0.40625,0.09375 0.121103,1.168905 -0.539524,1.306669 -0.625,1.90625 -0.08585,0.599299 0.248564,0.302272 -0.5625,0.3125 -0.811095,0.0099 -0.990637,0.442618 -2.25,-0.3125 -1.259715,-0.755411 -1.846759,-0.695115 -2.46875,-1 -0.622626,-0.30482 -1.07608,0.795227 -1.78125,-0.3125 -0.705557,-1.10835 -1.422355,-0.08929 -1.59375,-1.03125 -0.171432,-0.9423 -0.106217,-0.876733 -0.09375,-1.46875 0.01311,-0.592084 0.79402,-1.193776 0.40625,-1.375 -0.388101,-0.181188 -0.136614,-0.55358 -0.625,-0.28125 -0.488739,0.272034 -1.219493,0.4079 -1.78125,0.6875 -0.05898,0.02939 -0.0803,0.07795 -0.09375,0.09375 0.158846,0.0233 0.713147,-0.104629 -1.40625,0.28125 -2.825896,0.514176 -3.625,0.90625 -3.625,0.90625 0,2e-6 -0.227355,-0.142425 -0.5625,0.1875 -0.334817,0.329878 -0.809942,0.822343 -1.34375,0.65625 -0.533831,-0.166414 -0.819504,-0.05624 -1.25,0.0625 -0.430858,0.118435 -0.745143,-0.293073 -1.21875,0.125 -0.473652,0.417737 -1.046721,0.623629 -1.28125,0.5 -0.235036,-0.125214 -0.65625,-0.65625 -0.65625,-0.65625 l -0.96875,1.5625 -0.625,0.8125 -1.40625,0.9375 -0.125,0.6875 c 0,-3e-6 -0.548695,0.642194 -0.4375,1 0.111197,0.357806 0.1875,1.03125 0.1875,1.03125 10e-7,0 -0.935586,1.03751 -1.34375,1.375 -0.408163,0.337483 -0.90625,1.0625 -0.90625,1.0625 0,-10e-7 -0.327333,0.487517 -0.53125,0.65625 -0.20395,0.168403 -0.534278,0.625033 -0.78125,1.09375 -0.246963,0.468712 -0.501666,0.797073 -0.625,1.03125 -0.123345,0.234172 -0.489199,0.798806 -0.625,1.625 -0.135765,0.826521 -0.625,1.84375 -0.625,1.84375 l -0.125,0.375 c 0.202006,1.234325 0.24572,1.45174 0.4375,1.875 0.191428,0.422964 0.297947,0.253731 0.25,1.21875 -0.04769,0.964339 0.0069,1.327696 -0.09375,1.78125 -0.100672,0.452903 -0.454691,1.306682 -0.5625,1.6875 -0.108532,0.380247 0.375,1 0.375,1 0,1.3e-5 0.342412,0.922039 0.21875,1.15625 -0.123301,0.234505 0.125,0.65625 0.125,0.65625 -10e-7,0 0.927322,0.394148 1.25,0.65625 0.322328,0.261805 0.873046,0.663517 0.96875,0.875 0.09607,0.211776 0.810546,1.16352 0.90625,1.375 0.09571,0.211492 0.737484,0.95201 0.90625,1.15625 0.168756,0.204249 1,0.9375 1,0.9375 10e-7,3e-6 1.031591,0.63659 1.28125,0.90625 0.249307,0.269374 0.914836,0.36611 1.15625,0.5625 0.242069,0.196324 0.747672,0.06056 1.0625,0.25 0.31508,0.188759 0.848691,-0.24107 1.15625,-0.125 0.307189,0.115783 1.077332,-0.26877 1.28125,-0.4375 0.203917,-0.168727 0.674434,-0.71213 1.0625,-0.53125 0.387734,0.180893 0.575051,-0.07397 0.875,-0.03125 0.299305,0.04279 0.707943,-0.376 1,-0.40625 0.292393,-0.0303 0.999702,-0.38356 1.21875,-0.40625 0.219376,-0.02273 0.895115,-0.53221 1.1875,-0.5625 0.291739,-0.03023 0.619828,-0.35788 1,-0.25 0.380179,0.107883 0.194867,-0.33811 0.875,-0.1875 0.680122,0.15061 0.883292,-0.07102 1.125,0.125 0.242093,0.196642 0.500692,-0.05062 0.75,0.21875 0.249271,0.26904 0.646698,0.43393 0.75,0.71875 C 60.759234,94.753611 61.21875,95 61.21875,95 l 0.46875,0.03125 c 0,-10e-7 0.542746,-0.49605 0.71875,-0.21875 0.176287,0.276932 0.8125,0.125 0.8125,0.125 l 0.71875,0.65625 0.25,0.28125 c 10e-7,-10e-7 0.559198,1.1168 0.53125,1.5625 -0.02763,0.445656 0.07135,1.41451 -0.125,1.65625 -0.196319,0.24206 -0.21875,1.1875 -0.21875,1.1875 -3e-6,0 -0.280523,0.32742 0.4375,0.84375 0.718048,0.51667 1.219476,0.98095 1.46875,1.25 0.23597,0.25485 0.827379,0.93825 1,1.4375 l 24.96875,0 c -0.05877,-0.13722 -0.09269,-0.27917 -0.15625,-0.34375 -0.330256,-0.33512 -0.282275,-1.30202 -0.3125,-1.59375 -0.03026,-0.29206 0.404961,-1.06025 0.59375,-1.375 0.188757,-0.31508 1,-1.59375 1,-1.59375 -9e-6,4e-6 1.290531,-1.83133 1.71875,-2.6875 0.428165,-0.856814 0.852679,-1.63887 1.1875,-1.96875 0.335141,-0.329926 1.15829,-1.09188 1.59375,-1.875 0.435791,-0.783148 1.293175,-2.272708 1.34375,-2.5 0.05003,-0.226258 0.5625,-1 0.5625,-1 0,-8e-6 0.71909,-1.036233 0.8125,-1.5625 0.0927,-0.52654 0.53714,-3.442408 0.40625,-3.28125 -0.13022,0.16142 -0.99643,0.396698 -1.28125,0.5 -0.284138,0.103564 0.4776,0.301195 -1.65625,0.375 -2.132947,0.07305 -3.1875,0.5625 -3.1875,0.5625 -0.672966,-0.0782 -1.112183,0.687319 -1.4375,-0.3125 -0.324955,-0.999524 -0.549052,-1.564875 -1.0625,-2.25 -0.514105,-0.685066 -0.838515,-0.930694 -1.59375,-1.8125 C 90.025764,80.212624 90.160066,80.638031 89.5,79.96875 88.840182,79.29879 88.713418,79.536376 88.25,78.625 87.786536,77.713287 87.512157,78.113259 86.9375,76.84375 86.362822,75.573913 86.075946,75.457468 85.78125,74.75 c -0.295011,-0.707423 -0.59806,-0.889271 -0.8125,-1.53125 -0.214148,-0.642333 -2.257907,-3.834612 -2.5,-4.03125 -0.242036,-0.196004 -0.720748,-1.336811 -0.625,-1.125 0.09603,0.211446 1.1875,0.84375 1.1875,0.84375 -3e-6,2e-6 0.561875,-0.289772 0.78125,-0.3125 0.219047,-0.0227 1.188525,0.708261 1.21875,1 0.03028,0.292399 1.685551,1.515245 2.15625,2.5 0.471028,0.984722 0.991128,1.65294 1.09375,1.9375 0.102633,0.284571 0.974692,1.373119 1.3125,1.78125 0.337158,0.408186 1.371038,1.201707 1.5625,1.625 0.191449,0.423293 1.714124,1.737972 1.8125,2.6875 0.09838,0.949527 0.896393,2.121783 1,2.40625 0.103596,0.28447 1.46875,0.53125 1.46875,0.53125 l 1.6875,-0.65625 c -10e-7,10e-7 2.457615,-1.938457 2.75,-1.96875 0.29174,-0.03023 2.53125,-1.375 2.53125,-1.375 1e-5,10e-7 0.86456,-0.952062 1.46875,-1.53125 0.60447,-0.579557 1.21159,-1.608595 1.3125,-2.0625 0.10028,-0.453519 0.39027,-0.562943 0.90625,-1.28125 0.51633,-0.718025 1.24403,-1.45828 0.6875,-1.84375 -0.55682,-0.385109 -0.81916,-0.220169 -1.625,-0.875 -0.80613,-0.654483 -0.70265,-0.509382 -1.3125,-1.40625 -0.60978,-0.896223 -0.14266,-2.053174 -1.125,-0.84375 -0.98173,1.209038 -0.52063,1.448017 -1.59375,1.78125 -1.07258,0.332194 -1.444454,1.115026 -2.03125,0.4375 -0.586787,-0.677534 -1.031248,-0.184442 -1.4375,-1.25 -0.405574,-1.065308 -0.663203,-1.101005 -0.78125,-1.53125 -0.118113,-0.430889 -0.05201,-0.464658 -0.75,-1.5 -0.697626,-1.035048 -0.400953,-2.755463 0.0625,-1.84375 0.463778,0.911669 1.044527,1.00344 2.0625,1.5625 1.01729,0.558802 1.522484,1.017759 2.40625,1 0.88404,-0.01812 1.58888,-0.161821 1.75,-0.03125 0.16119,0.131228 0.307,-0.107852 0.6875,0 0.38057,0.108503 0.48066,-0.256132 0.6875,0.3125 0.20659,0.569323 1.00335,0.547738 1.40625,0.875 0.40322,0.327218 0.3788,0.2027 1.34375,0.25 0.96503,0.04795 2.3125,-0.09375 2.3125,-0.09375 l 1.375,-0.21875 1.625,-0.03125 c -1e-5,-2e-6 1.23951,0.530225 1.53125,0.5 0.29206,-0.03026 0.44288,0.762577 1.21875,1.125 0.7759,0.362734 0.91517,0.440207 1.40625,0.90625 0.49205,0.465941 0.45667,0.674414 1.09375,1.125 0.6378,0.451172 1.50163,-0.234902 1.625,-0.46875 0.12266,-0.23443 0.83483,-0.662014 0.75,-0.0625 -0.0858,0.5993 0.76272,0.276527 0.6875,1.6875 -0.0753,1.409996 -0.27632,1.088002 0.1875,2 0.46346,0.911706 2.39834,3.662331 2.5625,4.53125 0.041,0.217229 0.0921,0.365691 0.15625,0.46875 l 1.28125,-48.875 c 0,-1.892213 -1.54529,-3.4375 -3.4375,-3.4375 z m -81.8125,0.375 -24.6875,0.125 c -0.387666,0.274909 -0.875,0.53125 -0.875,0.53125 0,-1e-6 -1.446135,-0.04987 -2.96875,0.21875 -1.52233,0.268256 0.01074,0.998501 0.4375,0.84375 0.427049,-0.155108 0.783421,0.140509 2,0.125 1.216579,-0.01551 1.008808,0.328231 1.84375,0.90625 0.835271,0.577987 0.852855,0.461784 1.46875,1.0625 0.615863,0.600392 0.446902,1.189089 0.84375,1.8125 0.397176,0.623376 0.625,1.8125 0.625,1.8125 0,0 -0.256498,0.77782 -0.5625,1.03125 -0.306036,0.253103 -0.94424,0.449291 -2.0625,0.34375 -1.118578,-0.105509 0.04127,1.322613 0.21875,1.96875 0.177482,0.646137 0.375847,1.720639 0.75,2.125 0.374153,0.404364 0.801719,1.133971 1.40625,1.625 0.60453,0.491027 0.911105,0.364052 1.625,0.84375 0.714224,0.479663 1.80584,-1.844297 2.1875,-2.4375 0.381342,-0.593172 0.152135,-0.680043 0.71875,-1.625 0.566375,-0.944274 1.111053,-0.916656 3.34375,-1.8125 2.233016,-0.895877 0.990555,-1.078955 1.40625,-1.34375 0.415718,-0.264467 1.811279,-0.963132 2.46875,-1.03125 0.657142,-0.06808 1.71883,-0.512341 3.21875,-1 1.499922,-0.487664 1.555861,0.05336 2.15625,-0.5625 0.600719,-0.615901 0.802151,-0.737743 0.84375,-1.40625 0.04125,-0.668799 -0.536577,-0.941135 -0.125,-2.3125 0.411554,-1.371688 0.841431,-0.204988 2.84375,-1.1875 0.476788,-0.234035 0.734463,-0.456205 0.875,-0.65625 z m -31.4375,0.15625 c -1.7067196,0 -3.0843698,1.243519 -3.34375,2.875 0.022695,0.0044 0.033254,0.02944 0.0625,0.03125 0.6688346,0.04157 0.015727,-0.0088 0.59375,-0.84375 0.5776951,-0.834914 1.8763206,-0.870294 2.9375,-1.3125 0.9789167,-0.407834 1.9224993,-0.596684 2.40625,-0.75 l -2.65625,0 z M 4.40625,35.625 4.75,42.21875 c 0.1532071,-0.151622 0.34375,-0.25 0.34375,-0.25 2e-7,10e-7 2.0149453,1.263084 1.1875,-0.3125 C 5.4535297,40.081024 4.9990867,40.107921 5.4375,40.0625 c 0.4384231,-0.04542 1.375,0.40625 1.375,0.40625 L 7.15625,39.5625 6.5625,38.1875 5,36.90625 c 0,-10e-7 1.1035481,-1.232463 -0.5625,-1.28125 -0.013422,-3.93e-4 -0.018058,3.89e-4 -0.03125,0 z m 0.40625,7.5625 0.0625,1.125 C 5.3377125,44.2009 5.5922493,43.944262 5.03125,43.4375 4.932973,43.34872 4.8770582,43.267788 4.8125,43.1875 z m 0.15625,3.09375 0.15625,2.6875 c 0.00308,-0.09195 -0.0134,-0.157848 0,-0.28125 0.1131061,-1.045242 0,-1.46875 0,-1.46875 1e-7,10e-7 0.1016123,-0.88718 -0.125,-0.9375 -0.00978,-0.0022 -0.021667,0.0027 -0.03125,0 z m 0.15625,3.125 0.3125,5.5625 C 5.6091598,54.91395 5.7812547,54.860428 5.90625,54.75 6.37953,54.331967 7.3217883,53.620344 7.4375,53.3125 c 0.1160974,-0.307226 0.65625,-0.78125 0.65625,-0.78125 10e-8,-10e-7 0.5828351,-0.714511 0.1875,-0.96875 C 7.8859056,51.308265 7.464437,50.667459 7.1875,50.84375 6.9105629,51.020043 7.2141117,51.889303 6.53125,51 5.8484555,50.111345 5.9085111,49.938788 5.59375,49.75 5.3917843,49.628858 5.2027696,49.645848 5.125,49.40625 z m 2.6875,51.3125 c 0.1178257,1.29085 0.945481,2.37133 2.09375,2.84375 C 9.925362,102.96271 9.3827472,102.85956 9,101.96875 c -0.3278435,-0.76271 -0.7120634,-1.01206 -1.1875,-1.25 z" id="8" fill="#ddd"/>
 <path d="m 120.90625,29.5625 -113.25,0.53125 c -1.2733918,0 -2.2812501,1.026593 -2.28125,2.3125 l 3.53125,67.9375 a 1.1367412,1.1367412 0 0 1 0,0.0625 c 0,1.27339 1.0265955,2.28125 2.3125,2.28125 l 107.9375,0 c 1.2859,0 2.28125,-0.99535 2.28125,-2.28125 a 1.1367412,1.1367412 0 0 1 0,-0.0312 l 1.78125,-68.5 c 0,-0.01038 1.4e-4,-0.0209 0,-0.03125 -0.0166,-1.258974 -1.0495,-2.28125 -2.3125,-2.28125 z" id="9" fill="none" stroke="url(#L)" stroke-linejoin="bevel" stroke-linecap="round" stroke-width="1.949"/>
 <path d="M 122.21875,26.6875 4.875,27.21875 c -3.2470681,0 -5.9375,2.690433 -5.9375,5.9375 a 2.4088386,2.4088386 0 0 0 0,0.125 l 3.65625,70.34375 0,0.125 0.03125,0 c 0.072883,3.21136 2.7347163,5.8125 5.9375,5.8125 l 111.8125,0 c 3.22599,0 5.90286,-2.65624 5.9375,-5.875 2.3e-4,-0.021 0,-0.0414 0,-0.0625 l 1.84375,-70.9375 a 2.4088386,2.4088386 0 0 0 0,-0.0625 c 0,-3.247067 -2.69043,-5.9375 -5.9375,-5.9375 z" transform="matrix(0.9652278,0,0,0.9652278,2.9590038,0.385754)" id="A" fill="url(#M)" filter="url(#O)"/>
</svg>
