<?xml version='1.0' encoding='utf-8'?>
<svg xmlns="http://www.w3.org/2000/svg" version="1.1" width="600px" height="976px" viewBox="0 0 600 976"> <g id="layer1"> <g style="fill:rgb(0,0,0); fill-opacity:1.0; stroke-linejoin: miter"> <path d="M353.2476,593.8244C353.37463,593.9515,353.54446,594.1606,353.66553,594.32806C353.8016,594.5302,353.9562,594.74835,353.99747,594.8145C354.04697,594.88043,354.07053,594.9483,354.0544,594.96783C354.03906,594.98615,354.09177,595.0865,354.1745,595.17926C354.37943,595.42377,354.86758,596.1457,354.86478,596.2071C354.86728,596.23346,354.98715,596.4067,355.14423,596.5933C355.42758,596.936,355.621,597.2332,355.61945,597.3212C355.6185,597.3514,355.81543,597.6054,356.0631,597.8859C356.33563,598.19403,356.5454,598.4902,356.59222,598.617C356.62497,598.72345,356.7139,598.86444,356.7932,598.9438C356.80234,598.95294,356.81137,598.96124,356.82016,598.96857C356.83447,598.9804,356.84976,598.99457,356.86566,599.01056C356.9496,599.0944,357.0502,599.2264,357.11386,599.32745C357.21735,599.502,357.22873,599.58417,357.15933,599.68695C357.09042,599.7979,357.0515,599.8055,356.97586,599.7419C356.9194,599.6949,356.86508,599.6734,356.8455,599.6971C356.80197,599.7492,356.19528,599.57086,356.07742,599.4721C356.021,599.42426,355.96182,599.40753,355.9386,599.4356C355.8992,599.4827,355.38174,599.3713,355.28726,599.2922C355.25916,599.268,355.17932,599.25775,355.11856,599.2631C355.0584,599.27716,354.86383,599.2508,354.69473,599.2132C354.52374,599.1679,354.29337,599.1353,354.17596,599.1413C354.05832,599.1479,353.9525,599.13934,353.93854,599.1276C353.92432,599.1158,353.78314,599.1021,353.63113,599.1114C353.4782,599.11163,353.28012,599.09845,353.19052,599.0806C353.10153,599.0617,352.91733,599.05206,352.78665,599.06366C352.65286,599.0799,352.51068,599.05756,352.47324,599.02594C352.43054,598.9909,352.3856,598.9766,352.3702,598.9954C352.35025,599.0191,352.17783,599.0041,351.97867,598.97296C351.78323,598.9377,351.53217,598.9212,351.432,598.92584C351.28882,598.934,351.16086,598.8752,350.91342,598.7005C350.63217,598.48944,350.55545,598.46564,350.3128,598.48724C350.1563,598.50116,350.00656,598.488,349.9693,598.456C349.93585,598.4283,349.8558,598.4185,349.79153,598.4278C349.72653,598.4388,349.5793,598.403,349.46115,598.3526C349.3466,598.29755,349.124,598.2559,348.9677,598.26056C348.81427,598.26154,348.65497,598.24066,348.62186,598.2131C348.57004,598.1694,348.43027,598.1253,348.15533,598.07916C347.88174,598.02814,347.79953,598.0142,347.52905,597.74384C347.408,597.62274,347.24927,597.45026,347.01877,597.20013C346.97476,597.1524,346.93546,597.111,346.8996,597.07513C346.75363,596.92914,346.66464,596.87384,346.5503,596.8483C346.448,596.82684,346.28217,596.73724,346.17816,596.6501C345.78104,596.31805,345.02158,595.939,344.72372,595.93036C344.56967,595.92255,344.41888,595.9007,344.39545,595.8808C344.37674,595.8648,344.30255,595.8674,344.23822,595.8863C344.16534,595.90594,343.99463,595.89886,343.85193,595.8682C343.7047,595.8326,343.5409,595.8078,343.47958,595.8133C343.41852,595.8189,343.27777,595.8056,343.16226,595.7891C343.04675,595.76483,342.93805,595.7696,342.92175,595.78876C342.89484,595.8211,342.81403,595.77045,342.7423,595.69867C342.67822,595.6346,342.62137,595.5538,342.61658,595.5003C342.59766,595.2928,342.77435,595.2072,343.26495,595.1674C343.534,595.14374,343.99628,595.0806,344.28845,595.0196C345.09265,594.8654,346.25494,594.70514,346.2975,594.7413C346.32095,594.7609,346.35956,594.753,346.37955,594.7293C346.4229,594.6774,347.36456,594.493,347.6214,594.48346C347.80463,594.476,349.50452,594.16327,349.79932,594.0805C349.9319,594.0472,350.1112,594.00555,350.21503,593.987C351.3764,593.7707,352.20453,593.63544,352.54242,593.5965C352.9193,593.55914,352.95493,593.56476,353.17728,593.759C353.19852,593.7769,353.22217,593.799,353.2476,593.8244 Z M392.93716,538.48975C391.44385,536.99744,390.1001,535.6792,389.40878,535.0431C386.2097,532.1172,382.83807,529.2776,382.11206,528.8966C381.78137,528.724,379.5672,526.72546,376.25305,523.6128C375.80222,523.1902,375.15503,522.5597,374.39813,521.8096L374.3932,521.80457C374.3208,521.7329,374.24744,521.66003,374.17322,521.5862L374.1754,521.5884C374.1228,521.53625,374.0699,521.4835,374.01648,521.4304L374.01422,521.4282C373.8655,521.28015,373.71344,521.1284,373.55856,520.97363C373.36426,520.7793,373.16553,520.57996,372.96353,520.37695L372.96133,520.37476C372.64456,520.0565,372.31976,519.7289,371.99133,519.3965L371.99088,519.396C370.95267,518.3456,369.8779,517.24756,368.905,516.24316L368.90256,516.2407L368.94882,516.1565L368.9492,516.15576Q367.07178,514.1255,365.79776,512.85144Q363.65836,510.71207,363.22015,510.7054Q362.9161,510.64017,362.97678,511.17075Q363.0159,511.5931,363.51077,512.98303Q362.1348,511.65903,362.0978,512.14Q362.0029,512.42065,362.55304,514.18066Q360.85812,513.6123,360.54755,513.6721Q360.02444,513.6669,361.17923,514.96375Q358.88522,514.20337,358.78973,514.5525Q358.69174,514.70667,359.0183,515.20483Q359.28085,515.61707,360.20828,516.6941Q359.55704,517.25806,360.4393,518.5681Q360.90482,519.3291,362.6644,521.3827L362.66226,521.3806C362.95895,521.85596,363.34573,522.3727,363.80188,522.8938L364.42734,523.62L364.19006,523.7278C363.85153,523.88464,363.89944,524.3618,364.3041,525.09644L364.30185,525.0941C363.60037,524.7234,362.8336,524.31506,362.0098,523.87317C361.46487,523.58167,360.67667,523.14014,359.7513,522.6116L359.74524,522.60803C359.65683,522.5575,359.5671,522.506,359.47623,522.454L359.47617,522.454C359.4128,522.4177,359.34897,522.381,359.28455,522.3441L359.2819,522.3425C359.09988,522.23804,358.91373,522.13074,358.72403,522.02136C358.48605,521.8838,358.24252,521.7429,357.99484,521.5991L357.99222,521.59753C357.60388,521.37195,357.20532,521.13965,356.80197,520.9037L356.80142,520.90344C355.52664,520.15735,354.20435,519.3749,353.00467,518.65674L353.00168,518.6549L353.0245,518.5615L353.0247,518.5608Q350.6857,517.0856,349.1254,516.1847Q346.50522,514.67175,346.08023,514.7788Q345.76965,514.79443,345.96548,515.2914Q346.1127,515.6891,346.95047,516.90356Q345.27872,515.98083,345.3674,516.45496Q345.34836,516.75073,346.3353,518.3082Q344.55106,518.1981,344.26654,518.3362Q343.982,518.4093,344.31485,518.7422Q344.57407,519.00134,345.2076,519.41797L345.20975,519.42017Q342.79837,519.27966,342.79648,519.6415Q342.7512,519.78564,343.04788,520.0824Q343.1096,520.14417,343.18613,520.2125Q343.54642,520.5426,344.721,521.343Q344.29294,521.97485,345.17886,522.86084Q345.29306,522.975,345.4291,523.0934Q346.07523,523.70764,348.30356,525.23413L348.3043,525.23474C348.71396,525.6172,349.22128,526.0161,349.7967,526.4015L350.58875,526.9409L350.38754,527.10657C350.08768,527.35693,350.28784,527.83655,350.93622,528.485C351.36615,528.9149,351.9932,529.41907,352.80228,529.97974C353.4009,530.39124,353.70728,530.6118,353.8268,530.7313C353.92038,530.82495,353.89948,530.85657,353.81467,530.8695C353.48782,530.92737,353.3983,531.20435,353.59464,531.5759C353.65604,531.6843,353.75992,531.81165,353.90652,531.95825C354.23178,532.28345,354.76752,532.7041,355.5179,533.22644C355.80856,533.4219,355.9746,533.54004,356.05014,533.6156C356.13495,533.70044,356.10538,533.7313,356.00992,533.75684C355.50375,533.8855,355.58813,534.4387,356.18658,535.0371C356.22253,535.0731,356.26038,535.10925,356.30002,535.1454C356.53748,535.3646,357.23773,535.83936,357.854,536.1952L358.9671,536.8496L358.63892,536.93005C358.23242,537.0242,358.08774,537.23413,358.2034,537.58264C358.22858,537.65894,358.29425,537.7488,358.39233,537.8468C358.5782,538.0327,358.8803,538.24817,359.2434,538.4579C359.54706,538.6332,359.89325,538.8043,360.2499,538.95056L360.25275,538.95215Q360.39026,539.9575,360.57385,540.92834Q361.3034,543.67786,364.73145,547.10596Q365.06946,547.444,365.43378,547.7886Q366.682,548.766,367.87366,549.56323C367.66827,549.7804,367.72083,550.0702,368.02368,550.37305C368.10883,550.45825,368.2137,550.54443,368.33826,550.63025C368.49582,550.7407,368.60565,550.8248,368.67075,550.8899C368.80243,551.0216,368.75104,551.07544,368.54163,551.1117C368.05893,551.19507,367.98047,551.79456,368.33032,552.1444C368.37744,552.1915,368.43225,552.23413,368.49493,552.27026L368.7591,552.42285L368.3647,552.6178C367.87683,552.85254,367.85144,552.8966,367.9445,553.2439C367.9723,553.34753,368.01923,553.4332,368.10608,553.52C368.19366,553.60767,368.32187,553.69653,368.512,553.8063L369.00504,554.09094L368.73706,554.22974C368.59174,554.29846,368.403,554.4829,368.3217,554.6238C368.19247,554.84766,368.21637,555.04224,368.39764,555.2235C368.466,555.2919,368.55667,555.3583,368.66998,555.4237C368.76917,555.48096,368.83716,555.52246,368.8727,555.5581C368.9508,555.6361,368.87244,555.6853,368.6241,555.808C368.1381,556.0575,368.08606,556.4828,368.4073,556.8041C368.47073,556.86743,368.54877,556.9269,368.64087,556.98C368.72278,557.02734,368.81586,557.0697,368.91974,557.1056L369.36533,557.26917L369.09973,557.44446C368.56494,557.7849,368.45786,558.2726,368.77393,558.5886C368.82196,558.6366,368.87973,558.68066,368.94727,558.7196C369.00592,558.75366,369.07202,558.78357,369.1454,558.8091C369.2525,558.8474,369.32568,558.87646,369.3707,558.90247C369.3878,558.91235,369.40076,558.92175,369.41003,558.93115C369.4496,558.9706,369.42102,559.0077,369.34857,559.06714C368.81598,559.4923,368.68552,559.8574,368.96936,560.14124C369.02206,560.194,369.08905,560.2439,369.1704,560.2909C369.36407,560.4026,369.61334,560.49963,369.73187,560.4977C369.78455,560.5021,369.8218,560.5066,369.8422,560.5176L369.8451,560.5193C369.84784,560.5209,369.85016,560.5227,369.8521,560.52466C369.8852,560.55774,369.81696,560.6355,369.6244,560.84644C369.23657,561.26514,369.16595,561.56824,369.3993,561.80164C369.44727,561.8496,369.50812,561.89465,369.5817,561.93713C369.77167,562.03503,370.04868,562.12463,370.21268,562.12524C370.3766,562.1261,370.52155,562.1393,370.55304,562.14575C370.55347,562.146,370.55383,562.14624,370.5542,562.1466C370.57544,562.16785,370.45477,562.3766,370.29614,562.63135C370.02066,563.0475,370.0027,563.11926,370.1289,563.3684C370.17255,563.45667,370.2116,563.5198,370.25925,563.5674C370.2832,563.59143,370.30942,563.61145,370.33942,563.6288C370.4051,563.66675,370.48907,563.6914,370.6091,563.71594C370.78928,563.74963,371.06668,563.75696,371.20557,563.7197C371.30453,563.7018,371.36548,563.69165,371.38916,563.7035L371.3922,563.7052C371.39337,563.70593,371.39438,563.7068,371.39526,563.70764C371.4206,563.73303,371.3567,563.8141,371.20685,564.0023C371.05472,564.1846,370.90964,564.4763,370.87613,564.6565C370.8327,564.88245,370.86246,565.04785,370.97205,565.15735C370.99698,565.1824,371.026,565.20435,371.0593,565.22363C371.21503,565.3135,371.46292,565.34155,371.81137,565.31384L372.14563,565.28394L371.93726,565.6449C371.8204,565.8474,371.72705,566.1105,371.71518,566.2328C371.71432,566.3273,371.76035,566.4182,371.83716,566.495C371.87567,566.53357,371.9219,566.5685,371.97385,566.5985C372.11298,566.67883,372.293,566.72363,372.4747,566.70654C372.5833,566.6996,372.64743,566.69653,372.676,566.7113L372.67947,566.71326C372.6816,566.7146,372.6835,566.7162,372.68515,566.7179C372.70932,566.74207,372.68134,566.79614,372.61758,566.9065C372.3751,567.32654,372.38046,567.7158,372.58862,567.92395C372.61844,567.95374,372.65237,567.97986,372.69034,568.0017C372.77072,568.0482,372.86917,568.07605,372.9844,568.08093C373.17105,568.083,373.36407,568.0537,373.4261,568.0073C373.4396,567.99426,373.45078,567.99036,373.4589,567.99475L373.46005,567.99536C373.4611,567.9961,373.46207,567.9968,373.46298,567.9978C373.48264,568.01746,373.47855,568.0973,373.4365,568.213C373.33945,568.52673,373.3103,568.77734,373.3469,568.96045L373.34433,568.9579C373.14304,569.08496,372.92673,569.2136,372.525,569.4509C372.41742,569.5126,372.2598,569.6145,372.1688,569.6753C371.9923,569.79956,370.6282,570.4502,370.47397,570.48145C370.4174,570.4911,370.25693,570.54846,370.11288,570.60547C369.9691,570.66187,369.77026,570.73596,369.66757,570.7628C369.07516,570.9426,368.7463,571.0282,368.72275,571.0088C368.65643,570.9531,367.77988,571.0791,366.9171,571.26514C366.16702,571.4319,365.92422,571.4629,365.5906,571.43933C365.42703,571.42346,365.12585,571.42834,364.9302,571.4413C364.73074,571.4591,364.54544,571.4496,364.517,571.42615C364.4888,571.4021,364.34012,571.39795,364.1838,571.41125C364.0319,571.42957,363.73105,571.4342,363.5289,571.426C363.32684,571.4181,363.09506,571.4165,363.0168,571.4237C362.90375,571.4336,361.40112,571.40466,360.8966,571.3838C359.87448,571.348,359.74442,571.36865,359.12732,571.65405C358.16562,572.1028,358.03568,572.16223,357.99637,572.20935C357.97208,572.2379,357.89963,572.2572,357.83435,572.2584C357.76898,572.26025,357.6845,572.2937,357.64496,572.3412C357.6055,572.38855,357.52032,572.4226,357.4553,572.4237C357.38992,572.4248,357.30133,572.46326,357.26175,572.5106C357.21848,572.5624,357.1727,572.58826,357.14932,572.5686C357.13034,572.5525,356.98544,572.6007,356.831,572.6802C356.66742,572.76025,356.37314,572.90027,356.17203,572.9967C355.79865,573.1741,355.57657,573.3345,355.62546,573.39075C355.62796,573.39417,355.63492,573.40173,355.64578,573.4126C355.699,573.4658,355.84476,573.6001,356.00662,573.74207C356.06525,573.7937,356.1171,573.8419,356.16214,573.88696C356.51486,574.2396,356.4512,574.40454,355.96335,574.6384C355.81635,574.70825,355.63956,574.8331,355.57242,574.9133C355.50504,574.9939,355.35977,575.0807,355.2521,575.1044C355.02045,575.15027,354.95633,575.2174,354.93903,575.4204C354.92905,575.49963,354.7742,575.7716,354.5908,576.0194C354.31805,576.40247,354.20932,576.5038,353.94748,576.6632C353.7729,576.76587,353.5604,576.9335,353.47348,577.0377C353.38638,577.14136,353.27094,577.22217,353.2006,577.21924C353.13556,577.22046,353.05103,577.25415,353.0117,577.3014C352.9714,577.3491,352.88766,577.38245,352.82196,577.38403C352.75626,577.38525,352.67538,577.4147,352.64413,577.4523C352.61246,577.4905,352.39133,577.61,352.14365,577.7241C351.90054,577.8418,351.61746,578.0073,351.51166,578.09534C351.4055,578.18396,351.2856,578.25964,351.243,578.27185C350.87076,578.3617,350.26852,578.91833,350.15268,579.28735C350.11075,579.4136,349.8421,579.7828,349.3637,580.35455C348.7397,581.1103,348.63083,581.26825,348.59607,581.4638C348.56158,581.6204,348.50134,581.7305,348.38763,581.8283C348.2613,581.9312,348.23132,581.98566,348.265,582.0706C348.29837,582.15546,348.26938,582.2188,348.1388,582.32697C348.04553,582.4091,347.98795,582.49774,348.00323,582.52716C348.024,582.5599,347.97842,582.68195,347.90546,582.7979C347.80127,582.9605,347.687,583.0489,347.4348,583.168C347.22507,583.2652,347.0689,583.3748,347.0205,583.4715C346.97125,583.55865,346.8319,583.66766,346.6726,583.74286C346.52554,583.81305,346.3079,583.9194,346.19086,583.98224C345.91418,584.1209,344.86548,584.3757,344.74374,584.33856C344.69415,584.3212,344.63824,584.3305,344.6105,584.36334C344.58255,584.3875,344.45386,584.4644,344.3148,584.5253C344.17554,584.5855,344.04688,584.66266,344.01813,584.68744C343.9945,584.71564,343.89886,584.7237,343.80554,584.7017C343.70764,584.684,343.57465,584.7087,343.49957,584.75946C343.43042,584.8138,343.2482,584.87775,343.1012,584.89984C342.95935,584.92535,342.82336,584.96356,342.80304,584.9876C342.78363,585.0107,342.5329,585.09894,342.2518,585.1849C341.76563,585.3244,340.39047,585.74835,339.34293,586.0684C339.09186,586.1473,338.8636,586.2376,338.84384,586.2614C338.8202,586.28973,338.7154,586.33844,338.6126,586.3649C338.50577,586.39667,338.15823,586.5234,337.8333,586.653C337.5164,586.78204,337.23224,586.88104,337.20093,586.87067C337.16937,586.86066,337.1151,586.88727,337.07965,586.9296C337.04767,586.9676,336.95532,587.0109,336.88177,587.0214C336.8001,587.0329,336.35608,587.2082,335.8877,587.403C334.7923,587.8764,334.58862,587.94696,334.15866,588.02985C333.96048,588.065,333.58514,588.16766,333.32742,588.2651C333.07306,588.3577,332.7224,588.45013,332.55698,588.45624C332.38318,588.4715,332.20856,588.5263,332.16104,588.5833C331.98697,588.7912,331.46826,588.95953,331.19714,588.9001C331.05817,588.86444,330.87256,588.8459,330.78485,588.8454C330.69348,588.8488,330.60968,588.84283,330.59064,588.82745C330.54327,588.7878,330.17273,588.94293,330.09363,589.03766C329.9985,589.1513,327.63257,589.3963,327.31006,589.3201C327.18567,589.2962,326.9552,589.3122,326.78015,589.3582C326.61365,589.4034,326.40234,589.4355,326.30933,589.4213C326.22076,589.4119,326.0277,589.403,325.88818,589.4069C325.7434,589.4067,325.57172,589.3902,325.50354,589.3658C325.43176,589.34625,325.1112,589.3743,324.78802,589.4338C324.4704,589.49677,323.99277,589.587,323.72955,589.6329C323.46722,589.67804,323.22183,589.72125,323.17896,589.7343C323.14008,589.7421,323.01627,589.7747,322.90884,589.7979C322.4804,589.8969,322.3661,589.93756,321.43445,590.3309C321.1352,590.45807,320.77954,590.59454,320.6383,590.6291C320.1427,590.7602,319.38773,591.12494,318.8938,591.47516C318.8034,591.54474,318.63818,591.5981,318.52835,591.59515C318.41867,591.5916,318.27304,591.6224,318.21133,591.66656C318.14468,591.7078,317.99545,591.752,317.87912,591.7663C317.60223,591.79926,317.11563,591.8912,316.69998,591.9848C316.5157,592.02264,316.2958,592.0643,316.2224,592.07465C316.14896,592.08636,315.98972,592.113,315.8697,592.1413C315.7497,592.16974,315.48343,592.2286,315.269,592.27374C314.82266,592.3746,314.22855,592.5279,313.73474,592.6766C313.17282,592.84894,313.1424,592.856,312.6307,592.95844C312.36002,593.0131,311.82053,593.13995,311.43152,593.2397C311.03787,593.336,310.58786,593.44135,310.4331,593.4731C309.83066,593.5872,308.9176,593.8914,308.8187,594.00934C308.6448,594.2172,306.63507,594.48773,306.4463,594.3293C306.34232,594.242,305.37173,593.8566,305.32178,593.8874C305.29697,593.8979,305.24796,593.8896,305.2105,593.858C305.17694,593.83026,305.10132,593.8149,305.04108,593.82904C304.97675,593.8388,304.8654,593.81854,304.78745,593.7774C304.7004,593.7371,304.51913,593.7133,304.37064,593.71783C304.22348,593.73114,304.09152,593.72565,304.06827,593.70575C304.0493,593.6895,303.96777,593.70966,303.88858,593.7564C303.80118,593.8038,303.70938,593.80743,303.65305,593.75995C303.60077,593.71674,303.5289,593.6873,303.49066,593.7045C303.4562,593.7164,303.38467,593.69586,303.33755,593.6562C303.2904,593.617,303.19662,593.59503,303.132,593.6048C303.06342,593.61957,302.90878,593.60284,302.7871,593.5656C302.4476,593.48175,302.35666,593.5424,302.2491,593.9588C302.19662,594.15594,302.17313,594.3377,302.18448,594.36224C302.19998,594.392,302.1874,594.44525,302.15564,594.48334C302.12396,594.52106,302.07278,594.73553,302.04434,594.95245C302.01538,595.1691,301.98077,595.3648,301.96082,595.38837C301.94455,595.40765,301.93967,595.5002,301.95236,595.5904C301.96466,595.68085,301.95212,595.7828,301.92392,595.8161C301.89664,595.8488,301.87732,595.9296,301.88754,595.9941C301.88913,596.05963,301.85855,596.2592,301.81293,596.4384C301.7369,596.759,301.56638,598.03436,301.5987,598.0667L301.59885,598.06683C301.6085,598.0744,301.70694,598.1009,301.80923,598.1224C301.94913,598.153,302.0449,598.19415,302.10104,598.2504C302.165,598.3144,302.17764,598.3979,302.14572,598.5075C302.11957,598.60675,302.08496,598.76324,302.06738,598.8604C302.04294,599.02435,301.87094,599.6523,301.71597,600.1728C301.67902,600.2939,301.62576,600.4825,301.59915,600.58075C301.57404,600.68854,301.52707,600.80145,301.49136,600.84406C301.46005,600.882,301.40506,601.0048,301.37558,601.1169C301.3375,601.2299,301.26364,601.43304,301.20117,601.5655C301.1384,601.6982,301.09647,601.86395,301.10233,601.93353C301.10864,602.0026,301.07748,602.097,301.03305,602.14044C300.95035,602.23944,300.82077,602.5579,300.7504,602.8433C300.72498,602.95087,300.69016,603.04974,300.67007,603.07355C300.62668,603.1254,300.50113,604.0241,300.50107,604.27423C300.51608,605.3792,300.77545,606.5767,301.1328,607.14813C301.1992,607.26117,301.24582,607.3879,301.22842,607.4371C301.1694,607.6027,301.36838,607.93536,301.77417,608.3411C301.77985,608.34686,301.78555,608.3525,301.7913,608.3582C301.86206,608.4301,301.94302,608.5113,302.02603,608.5944C302.11728,608.6856,302.21112,608.779,302.29654,608.86444C302.3815,608.9494,302.45822,609.02655,302.51596,609.08575C302.522,609.09186,302.528,609.09784,302.53397,609.1038C302.88705,609.457,303.048,609.49994,303.33627,609.35394C303.4488,609.29584,303.55548,609.26447,303.57425,609.2807C303.6168,609.31635,303.98224,609.1961,304.04132,609.1254C304.1127,609.04034,304.0437,608.403,303.9293,608.1557C303.86887,608.01654,303.73447,607.7835,303.6351,607.6436C303.53012,607.49945,303.43286,607.2896,303.41275,607.1694C303.38998,607.05304,303.32086,606.8665,303.24982,606.75934C303.18405,606.65594,303.14386,606.54987,303.16,606.53094C303.17514,606.5124,303.1798,606.3631,303.16937,606.1933C303.1591,606.03265,303.1865,605.7984,303.23306,605.68475C303.28622,605.54474,303.28525,605.4306,303.21762,605.30963C303.1027,605.1014,303.22202,604.92035,303.5575,604.80743C303.7449,604.74713,303.78946,604.7038,303.87772,604.512C304.0482,604.1253,304.53485,603.6971,305.58035,603.0059C305.74152,602.8997,306.0449,602.6713,306.24857,602.50507C306.4514,602.32916,306.67874,602.1734,306.74603,602.1413C306.91037,602.07916,307.1954,601.73846,307.38223,601.38043C307.55484,601.0589,307.79074,600.8543,308.34357,600.5777C308.52353,600.48724,308.78445,600.3289,308.9208,600.23334L309.1718,600.0495L309.3882,600.2797C309.4005,600.29144,309.41312,600.3039,309.426,600.31683C309.54398,600.43475,309.68198,600.59186,309.76108,600.6794C309.78033,600.7027,309.79843,600.7232,309.816,600.7408C309.955,600.8797,310.05734,600.83514,310.3664,600.5511C310.49112,600.43146,310.6188,600.3454,310.6547,600.3505C310.69373,600.35175,310.8292,600.248,310.96158,600.11774C311.23645,599.857,311.90622,599.42145,312.38846,599.19073C312.59836,599.09344,312.96902,599.0256,313.50742,598.9865C313.94598,598.9522,314.51767,598.8835,314.77667,598.8426C315.03445,598.794,315.35385,598.7482,315.48422,598.7364C315.61835,598.72015,315.7653,598.69855,315.8115,598.68146C315.86307,598.6678,316.07773,598.623,316.29318,598.58636C316.73257,598.512,316.7717,598.50433,318.20096,598.102C318.77734,597.9411,319.2609,597.8239,319.28452,597.8437C319.30338,597.85944,319.3461,597.8465,319.3736,597.81354C319.40128,597.7808,319.59552,597.70233,319.80887,597.63947C320.02222,597.5765,320.28067,597.4882,320.3816,597.4445C320.4831,597.40045,320.6504,597.3636,320.75443,597.3543C320.85907,597.3538,320.99652,597.3244,321.0647,597.30035C321.2337,597.2332,322.07947,597.1059,322.74786,597.04645C323.06033,597.0186,323.58344,596.9504,323.91153,596.9036C324.66702,596.7884,325.5351,596.71124,325.99475,596.7183C326.6299,596.72784,327.7197,596.58746,328.2865,596.4185C328.65317,596.31647,329.8708,596.18634,330.04575,596.23627C330.2252,596.2911,330.6686,596.35614,330.72852,596.342C330.75464,596.3403,330.91248,596.34344,331.07947,596.35443C331.40527,596.3787,332.17346,596.3057,332.5938,596.2159C333.02264,596.11615,333.87366,596.0496,334.37006,596.07086C334.62488,596.0832,334.9792,596.0827,335.15735,596.0712C335.33545,596.06,335.49774,596.0673,335.51685,596.08344C335.53558,596.09894,335.62683,596.0861,335.71484,596.0484C335.85855,595.9914,335.90845,596.009,336.0376,596.1331C336.225,596.3221,336.1649,596.48016,335.83698,596.63214C335.7229,596.6812,335.56757,596.8001,335.4886,596.8947C335.4095,596.98944,335.27432,597.0933,335.1891,597.11835C335.10382,597.1429,334.93848,597.25446,334.82162,597.3648C334.69992,597.4721,334.57227,597.5577,334.53183,597.54816C334.49237,597.54755,334.4339,597.5793,334.39832,597.62177C334.36255,597.664,334.25525,597.7349,334.1578,597.77423C334.06104,597.8129,333.9118,597.90546,333.82172,597.9742C333.7314,598.0435,333.46246,598.21136,333.2295,598.346C332.44568,598.78326,331.2793,599.6877,330.2422,600.6674C329.68512,601.1893,328.61542,602.49554,328.54926,602.7287C328.5108,602.84174,328.4599,603.008,328.4288,603.1031C328.3932,603.20905,328.40643,603.29926,328.4594,603.35223C328.46265,603.3554,328.466,603.3586,328.46954,603.3615C328.47552,603.3665,328.48114,603.37177,328.48645,603.377C328.5268,603.4174,328.54575,603.4627,328.5244,603.48785C328.50134,603.5157,328.51163,603.54926,328.5446,603.5822C328.607,603.6446,328.7508,603.7044,328.90363,603.7165C329.18994,603.7392,329.8118,603.5527,330.13885,603.3449C330.28802,603.2525,330.45798,603.1458,330.52466,603.11383C330.59222,603.0811,330.752,602.95795,330.8731,602.84174C331.00262,602.72516,331.21228,602.58014,331.34686,602.51544C331.47647,602.4471,331.64703,602.3488,331.72522,602.2941C332.287,601.8724,334.8448,601.2253,335.0958,601.4345C335.13812,601.4703,335.19092,601.4749,335.21094,601.4511C335.2342,601.4234,335.2832,601.43134,335.3211,601.4627C335.35883,601.4947,335.47552,601.4803,335.58136,601.4399C335.68723,601.4002,335.7943,601.3774,335.8177,601.3974C335.84668,601.42084,336.031,601.4306,336.2312,601.42194C336.43213,601.4124,336.6162,601.4223,336.6493,601.45026C336.6777,601.4733,336.7213,601.4698,336.74066,601.4462C336.76486,601.418,336.80862,601.4228,336.84637,601.45465C336.88455,601.48627,336.93787,601.49884,336.96716,601.483C337.02124,601.4477,337.73627,601.4759,337.77924,601.51166C337.79822,601.5273,337.96368,601.5213,338.1496,601.5008C338.34045,601.48395,338.53027,601.49725,338.5773,601.5369C338.62488,601.57623,338.73257,601.6104,338.82562,601.62396C338.97086,601.63324,339.01184,601.6036,339.1967,601.3249L339.40198,601.0219L339.74976,601.00006C339.93726,600.98724,340.29996,600.986,340.5586,600.9931C340.9016,601.0079,341.12836,601.07684,341.25848,601.2071C341.3198,601.2684,341.35968,601.3432,341.3802,601.43243C341.39517,601.50433,341.4422,601.59735,341.48306,601.63824C341.48578,601.6409,341.48846,601.6435,341.49112,601.6457C341.49615,601.64996,341.50095,601.65436,341.50537,601.65875C341.5425,601.69586,341.5581,601.7387,341.53656,601.7642C341.48218,601.8293,341.49414,602.1202,341.553,602.179C341.55405,602.1801,341.55508,602.1811,341.55615,602.18195C341.58487,602.2055,341.69128,602.2225,341.79587,602.22235C341.90115,602.2215,342.02145,602.2502,342.06845,602.2901C342.116,602.32916,342.1876,602.34955,342.22153,602.33734C342.25967,602.32074,342.33218,602.3494,342.38382,602.3931C342.4314,602.43243,342.49362,602.4444,342.5134,602.4207C342.53732,602.3924,342.59552,602.4089,342.64767,602.4526C342.69888,602.4963,342.75784,602.5129,342.77383,602.49384C342.78983,602.4748,342.9597,602.52106,343.14948,602.59186C343.34457,602.66595,343.52036,602.7249,343.55026,602.71796C343.61032,602.7037,344.81403,603.01263,344.98682,603.085C345.0603,603.1214,345.139,603.1235,345.15857,603.10004C345.1787,603.0766,345.2227,603.08136,345.25586,603.10895C345.29337,603.1407,345.74106,603.25836,346.25595,603.3826C347.31342,603.62616,347.48608,603.69855,348.05942,604.0977C348.28302,604.25287,348.52756,604.3934,348.60358,604.408C348.68756,604.42267,348.89908,604.5347,349.07608,604.6591C349.26224,604.7824,349.4975,604.9239,349.60675,604.9664C349.71994,605.01324,349.98285,605.1691,350.19702,605.3166C350.41608,605.4677,350.84412,605.705,351.15872,605.84784C351.46408,605.9914,351.79056,606.1679,351.88025,606.2431C351.96985,606.3184,352.1197,606.3702,352.2241,606.3697C352.32846,606.3693,352.4542,606.4017,352.51074,606.44916C352.56754,606.4969,352.6994,606.5507,352.8065,606.5765C352.9088,606.59796,353.0595,606.6679,353.1348,606.73114C353.21072,606.7945,353.29166,606.8222,353.3116,606.79865C353.35895,606.7415,353.5706,606.8055,353.99982,607.01276C354.16843,607.0894,354.39822,607.1607,354.50842,607.1729C354.61884,607.1851,354.8671,607.2724,355.05936,607.36884C355.25275,607.4744,355.42474,607.5374,355.44006,607.5191C355.45615,607.4998,355.5097,607.5129,355.5572,607.5523C355.60416,607.5922,355.67664,607.62054,355.7198,607.61664C355.7642,607.6213,355.95224,607.67487,356.1337,607.74615C356.31512,607.81744,356.5382,607.8674,356.62637,607.8682C356.70865,607.8659,356.86115,607.90436,356.957,607.9526C357.04916,608.0059,357.29254,608.08966,357.49362,608.13727C358.11526,608.28705,358.44336,608.3851,358.6267,608.4826C358.72745,608.535,358.8397,608.56476,358.87323,608.55255C358.912,608.545,358.99368,608.58185,359.06012,608.6368C359.12155,608.6879,359.25906,608.75446,359.35678,608.7719C359.4553,608.7985,359.7397,608.89996,359.98108,609.0053C360.2222,609.11066,360.6059,609.2474,360.83478,609.3099C361.05832,609.36896,361.27036,609.4422,361.30814,609.47394C361.34604,609.50507,361.4314,609.52826,361.49216,609.52277C361.62222,609.51154,362.19012,609.649,362.26065,609.7087C362.28937,609.732,362.43396,609.7413,362.58313,609.7364C362.73474,609.72784,362.89493,609.7569,362.9422,609.79645C362.99377,609.8403,363.11948,609.8731,363.22382,609.8631C363.32407,609.8593,363.51385,609.8814,363.63577,609.91876C363.76074,609.95135,364.00537,609.9952,364.17734,610.0103C364.34537,610.03033,364.50977,610.0643,364.53812,610.08795C364.5664,610.11163,364.6577,610.09894,364.7411,610.0566C364.82114,610.01874,364.93295,610.0003,364.98746,610.02167C365.0419,610.04315,365.17682,610.03534,365.28668,609.99054C365.39682,609.95514,365.51834,609.9445,365.54672,609.96796C365.6224,610.03107,366.35602,609.72064,366.63,609.5085C366.925,609.2812,367.2727,608.8654,367.24344,608.7758C367.22647,608.73846,367.4053,608.48627,367.6423,608.2027C367.9026,607.8825,368.09668,607.6026,368.15286,607.44867C368.20218,607.3134,368.2717,607.16254,368.30737,607.12006C368.3433,607.07733,368.36526,606.98395,368.35962,606.9141C368.35782,606.84894,368.38986,606.71466,368.43472,606.632C368.56866,606.3664,368.6236,606.0511,368.55667,605.8908C368.5236,605.80634,368.53125,605.54767,368.5717,605.31647C368.61597,605.0811,368.62106,604.78705,368.5778,604.64703C368.50818,604.4036,368.4705,603.8339,368.49448,603.36383C368.5005,603.23553,368.4768,603.1064,368.44067,603.07025C368.43954,603.06915,368.43848,603.0682,368.43735,603.0672C368.43637,603.06647,368.43542,603.0655,368.4345,603.06464C368.399,603.0291,368.3847,602.90656,368.404,602.7901C368.41977,602.6661,368.40494,602.50116,368.37082,602.41705C368.33835,602.34076,368.32312,602.1674,368.33807,602.0439C368.35757,601.9145,368.3268,601.7209,368.28244,601.6109C368.2327,601.4976,368.19565,601.3211,368.20834,601.21967C368.24023,600.8033,368.11084,600.00165,367.98923,599.88007C367.9874,599.87823,367.9856,599.8765,367.98376,599.87506C367.9835,599.8748,367.9832,599.8746,367.9829,599.8743C367.95932,599.85077,367.92688,599.6718,367.90778,599.466C367.8558,598.8758,367.8192,598.6606,367.7261,598.45514C367.68283,598.3532,367.66043,598.2066,367.68057,598.1351C367.70035,598.0633,367.66653,597.8256,367.60306,597.6037C367.5392,597.38226,367.45468,597.0701,367.4175,596.9034C367.3486,596.61127,367.2874,596.3681,367.14432,595.8383C367.1097,595.69684,367.05566,595.48285,367.03152,595.3586C367.0036,595.2381,366.9604,595.0495,366.9333,594.93854C366.64548,593.7651,366.61694,593.49225,366.75162,593.3317C366.8696,593.1901,367.30066,592.868,367.40295,592.8416C367.44537,592.82916,367.56577,592.75275,367.667,592.66046C367.7727,592.57245,367.9703,592.43243,368.1022,592.3421C368.3832,592.16,368.94467,591.7773,369.40146,591.4615C369.57507,591.3411,369.80762,591.1973,369.91626,591.1442C370.0254,591.09076,370.1445,591.00616,370.17984,590.96344C370.21964,590.91656,370.3331,590.8671,370.44122,590.85297C370.5406,590.83966,370.64093,590.7872,370.65848,590.7371C370.67596,590.6877,370.82828,590.58234,371.00522,590.5057C371.25412,590.4003,371.34024,590.3925,371.43512,590.4716C371.58154,590.5942,371.8042,590.5302,372.07962,590.28754C372.19263,590.1807,372.35764,590.0793,372.43893,590.04987C372.5243,590.0246,372.6316,589.95404,372.6788,589.89777C372.7268,589.8405,372.90866,589.72833,373.0807,589.6475C373.2528,589.56696,373.51636,589.4246,373.6652,589.3333C374.22565,588.99005,376.05475,588.2159,376.26266,588.2365C376.29794,588.24225,376.34055,588.22955,376.34753,588.2115C376.4297,588.10333,377.3272,587.76996,377.39362,587.8255C377.4173,587.8454,377.46384,587.82794,377.50336,587.7806C377.58252,587.686,378.9525,587.1624,379.19995,587.1359C379.30835,587.12177,379.43536,587.1232,379.48526,587.1412C379.5383,587.15436,379.68027,587.1762,379.8041,587.19196C379.9236,587.20294,380.14566,587.24457,380.297,587.27496C380.69485,587.3549,381.329,587.4234,381.5339,587.4129L381.53125,587.4102C381.98096,587.60785,382.238,587.7161,382.25003,587.71185C382.26144,587.7076,382.36215,587.7493,382.47687,587.8123C383.59286,588.3881,383.95847,588.4908,384.00552,588.2441C384.01816,588.2067,384.07446,588.12726,384.12558,588.0693C384.17535,588.023,384.291,587.8958,384.40366,587.7653L384.40094,587.76263C384.4479,587.79,384.49097,587.8199,384.52975,587.85223C384.5558,587.8741,384.5862,587.9025,384.62033,587.9366C384.89536,588.2116,385.40747,588.8548,385.74774,589.3536C385.88403,589.55743,386.03427,589.75226,386.0888,589.8068C386.09283,589.81085,386.09637,589.81415,386.0993,589.8166C386.10428,589.82074,386.109,589.825,386.11337,589.8294C386.15063,589.86676,386.1658,589.9101,386.14462,589.93524C386.12735,589.95636,386.14273,589.99896,386.1768,590.033C386.1809,590.03705,386.18527,590.0411,386.18985,590.04486C386.19318,590.04767,386.19684,590.0511,386.20078,590.055C386.25247,590.10675,386.35352,590.25214,386.43637,590.40314C386.52396,590.5573,386.85825,591.0223,387.1831,591.4311C387.4996,591.83966,387.8689,592.31036,387.99344,592.47845C388.11792,592.6468,388.28516,592.85956,388.35944,592.95294C388.43332,593.04755,388.51373,593.16254,388.53622,593.2221C388.55792,593.2725,388.71683,593.5345,388.89752,593.79803C389.07373,594.0579,389.36395,594.5179,389.5306,594.8178C389.97174,595.59625,390.29153,596.04913,390.70645,596.48456C390.72702,596.5069,390.7508,596.53143,390.77728,596.5579C391.29718,597.0778,392.88654,598.351,393.29736,598.5732C393.46292,598.66327,393.84842,598.91364,394.16043,599.12616C395.01785,599.7238,395.5781,600.0716,395.90594,600.21796C396.0696,600.2907,396.2639,600.404,396.33914,600.46783C396.41504,600.5312,396.60623,600.6198,396.76364,600.6619C396.93362,600.70844,397.15,600.8244,397.3152,600.9626C397.71167,601.295,398.3627,601.5347,398.75827,601.50397C398.9095,601.4864,398.91873,601.49445,401.353,603.4913C402.07434,604.0788,402.03342,604.0612,402.27234,603.9383C402.44324,603.8493,402.496,603.7963,402.55518,603.6298C402.6795,603.29877,402.77798,603.2862,403.08997,603.54706C403.47723,603.86224,403.5811,603.85284,403.88937,603.48444C404.0277,603.3189,404.1849,603.1701,404.24057,603.1517C404.29633,603.13617,404.38593,603.189,404.5137,603.3167C404.6009,603.404,404.70593,603.52606,404.83005,603.68524C404.84134,603.6995,404.85526,603.7148,404.87152,603.731C405.2102,604.06964,406.57657,604.8217,406.86856,604.82086C406.93408,604.81976,407.09232,604.8798,407.2168,604.9516C407.33722,605.0286,407.49023,605.0766,407.55548,605.066C407.61523,605.0516,407.69086,605.0673,407.72394,605.0953C407.75723,605.12274,407.83698,605.1326,407.90106,605.1232C407.98843,605.1093,408.15646,605.20355,408.25327,605.30035C408.30023,605.34735,408.33038,605.39496,408.32642,605.43097C408.3246,605.4399,408.32864,605.4489,408.33765,605.4578C408.4194,605.5396,408.90894,605.6209,409.1135,605.5754C409.25983,605.5445,409.33713,605.48114,409.48425,605.26654C409.5899,605.12164,409.70178,604.91046,409.732,604.8078C409.76657,604.6994,409.8581,604.50336,409.942,604.36456C410.03098,604.22906,410.09277,604.08856,410.08105,604.0546C410.0646,604.017,410.09085,603.774,410.13327,603.51154C410.17557,603.2502,410.21097,602.95844,410.21048,602.8531L410.20685,602.6656L409.8242,602.4898L409.43625,602.3095L409.43195,601.96906C409.4236,601.77765,409.38663,601.5533,409.33545,601.47015C409.3136,601.43146,409.28687,601.39667,409.25638,601.36615C409.11966,601.22943,408.90698,601.1789,408.71637,601.2496C408.61462,601.2845,408.2001,601.3481,407.79703,601.38824C406.9918,601.47723,406.8345,601.43414,406.28867,600.9925C406.22662,600.94086,406.1785,600.899,406.1411,600.8615C406.0414,600.7619,406.0179,600.6943,406.00906,600.55804C405.99878,600.3399,405.82556,599.7216,405.72702,599.55096C405.71835,599.5351,405.70728,599.52045,405.69397,599.50714C405.5469,599.36005,405.12833,599.37164,404.6944,599.5466L404.2466,599.72626L403.87338,599.5102C403.67017,599.3879,403.2367,599.0898,402.9141,598.852C402.58624,598.6097,402.25726,598.39813,402.1772,598.388C402.09683,598.36896,401.83688,598.19977,401.60526,598.00616C401.3651,597.8128,401.1052,597.64325,401.02432,597.6246C400.8047,597.5822,399.56247,596.565,398.94006,595.94257C398.8581,595.86066,398.78687,595.78546,398.73013,595.7203C398.5287,595.4904,398.31342,595.2608,398.0838,595.0312C397.70868,594.65607,397.29535,594.28107,396.8416,593.90607C396.8084,593.87836,396.753,593.82513,396.6861,593.75824C396.5908,593.6629,396.47223,593.53986,396.3614,593.42377C396.31683,593.37714,396.2657,593.3249,396.21106,593.2703C396.035,593.0942,395.82327,592.8934,395.68246,592.77606C395.61526,592.71747,395.55838,592.6651,395.51,592.61676C395.3779,592.4847,395.30972,592.382,395.27002,592.2608C395.23044,592.14435,395.16318,592.01874,395.11993,591.9755C395.11743,591.9731,395.11502,591.97076,395.1127,591.96893C395.10995,591.9666,395.1071,591.9639,395.10406,591.9609C395.05508,591.9119,394.96936,591.7719,394.90796,591.63715C394.50427,590.78534,393.82986,589.64215,393.2657,588.8569C393.1183,588.64825,392.97186,588.4382,392.86285,588.2764L392.86014,588.2736C392.95038,588.32355,393.03735,588.3791,393.10788,588.4344C393.12228,588.4456,393.13712,588.45905,393.15207,588.47394C393.23236,588.55426,393.3162,588.6806,393.3515,588.77814C393.38306,588.86456,393.44342,588.9572,393.50833,589.02216C393.53476,589.0485,393.56195,589.0704,393.58823,589.08527C393.73123,589.1706,393.75058,589.1706,393.9023,589.0296C394.0567,588.88873,394.13068,588.53986,394.0765,588.3376C394.06406,588.2911,394.04486,588.25226,394.01822,588.22565C394.0167,588.2242,394.01517,588.2227,394.01364,588.22125C394.0114,588.2192,394.00912,588.217,394.00674,588.21454C393.95477,588.16266,393.86182,588.04095,393.80084,587.9256C393.7739,587.88226,393.7433,587.8427,393.70502,587.8044C393.60638,587.7059,393.45685,587.6153,393.1877,587.48676C392.91336,587.3642,392.6061,587.2404,392.49997,587.2199C392.42804,587.20294,392.3647,587.164,392.31482,587.1142C392.26242,587.0617,392.2249,586.99725,392.20782,586.93353C392.18442,586.8461,392.19943,586.7601,392.26712,586.7083C392.41562,586.59467,392.72653,586.56647,393.03894,586.6296C393.18765,586.6606,393.33255,586.6796,393.36722,586.6668C393.40207,586.65424,393.556,586.66376,393.7047,586.6943C393.83807,586.7155,393.9349,586.75775,393.99203,586.8149C394.01913,586.842,394.0373,586.8724,394.04614,586.9056C394.0607,586.9599,394.05023,587.0213,394.01315,587.087C393.97708,587.1475,393.9716,587.2192,393.98923,587.285C394.00235,587.3339,394.02826,587.3796,394.06387,587.4152C394.09964,587.451,394.1452,587.4765,394.1974,587.48505C394.38873,587.50726,394.82388,587.2956,394.8974,587.1374C394.937,587.05145,394.93057,586.9085,394.89276,586.7674C394.85675,586.6329,394.7923,586.5002,394.71237,586.4202C394.7068,586.41473,394.70117,586.4095,394.69543,586.40436C394.67203,586.3837,394.6487,586.36176,394.62567,586.3387C394.40942,586.1225,394.21704,585.81537,394.17056,585.6419C394.15213,585.57306,394.15665,585.5253,394.1917,585.51263C394.309,585.4698,394.42746,585.1257,394.38358,584.96173C394.38205,584.95624,394.38034,584.95087,394.3785,584.94574C394.34906,584.8659,394.2057,584.6879,394.0477,584.52997C394.0345,584.5168,394.02118,584.5037,394.00778,584.4909C393.7478,584.24493,393.64935,584.1895,393.39896,584.1689C393.11362,584.1423,392.88843,584.17194,392.4164,584.29877C392.39676,584.3049,392.37714,584.31036,392.35788,584.315L392.35788,584.315C392.6788,583.82574,392.81958,583.49945,392.9819,582.9565C393.01932,582.8348,393.05878,582.68243,393.06622,582.6253C393.07004,582.5633,393.09436,582.4476,393.12256,582.3659C393.22397,582.03375,393.1887,581.68207,393.04263,581.46356C392.9617,581.34845,392.88348,581.20233,392.87024,581.1508C392.83945,581.0047,393.0094,580.85004,393.2014,580.84125C393.3672,580.83527,393.4894,580.9295,394.9642,582.12384C396.5324,583.3892,396.55594,583.409,396.88306,583.48895C397.07907,583.53253,397.32468,583.5373,397.46506,583.4943C397.69943,583.42523,397.73572,583.3914,398.04745,582.9615L398.37466,582.5036L398.74564,582.4534C399.05298,582.4129,399.13754,582.37897,399.1918,582.2563C399.2373,582.1735,399.3226,582.10016,399.42035,582.07C399.51944,582.04755,399.61313,581.9649,399.6774,581.8586C399.83044,581.6087,400.2382,581.4766,400.4133,581.6231C400.70624,581.86786,401.29208,581.6673,401.20673,581.347C401.17996,581.2447,401.2045,581.17645,401.30267,581.09784C401.40436,581.01483,401.43198,580.9338,401.41837,580.7767C401.41235,580.65936,401.42926,580.5048,401.4577,580.4317C401.48584,580.3603,401.5,580.17084,401.47754,580.0147C401.45053,579.75946,401.4676,579.70074,401.72345,579.33716C402.06165,578.8568,402.27985,578.7012,402.6686,578.69775C402.82608,578.69226,402.96408,578.67175,402.97943,578.6527C403.06256,578.5537,403.15363,577.90674,403.10056,577.798C403.05362,577.7097,403.07608,577.62463,403.1623,577.5122C403.24512,577.4132,403.27982,577.3048,403.24915,577.20715C403.22363,577.1221,403.246,576.9801,403.2913,576.88794C403.3403,576.80115,403.36606,576.6548,403.35367,576.56396C403.31824,576.3082,403.49792,576.1614,403.79813,576.19604C403.9399,576.2189,404.08362,576.2584,404.11615,576.2859C404.15436,576.318,404.21674,576.3297,404.25916,576.317C404.29712,576.30066,404.46613,576.329,404.63223,576.38C404.98294,576.489,405.29565,576.4612,405.62225,576.3008C405.75165,576.23267,405.91125,576.157,405.97092,576.13416C406.0637,576.09985,406.07162,575.99414,406.0305,575.6216C405.9982,575.3623,405.95795,575.103,405.93524,575.04407C405.90778,574.9806,405.87027,574.8052,405.83798,574.6417C405.7434,574.103,405.6252,573.71045,405.5188,573.6041C405.5154,573.6007,405.512,573.59766,405.50867,573.59485C405.5041,573.59106,405.49945,573.5867,405.49472,573.58203C405.436,573.5233,405.367,573.3972,405.3379,573.2909C405.30307,573.1776,405.24673,573.08545,405.12692,572.9657C405.07562,572.9143,405.01266,572.85803,404.93478,572.7927C404.8482,572.7202,404.78323,572.6638,404.7331,572.61365C404.60544,572.4861,404.57388,572.39844,404.527,572.18567C404.48477,572.0154,404.48264,571.7876,404.52206,571.69226C404.63947,571.3888,404.56628,570.9098,404.35693,570.67017C404.25912,570.55664,404.0958,570.29114,404.00372,570.0847C403.85547,569.75244,403.47055,569.15674,403.1815,568.8113C403.134,568.75525,403.0963,568.71204,403.05692,568.6726C402.95877,568.57446,402.85028,568.5001,402.55566,568.31067C402.12488,568.03845,401.5283,567.7239,401.10547,567.5475C400.95566,567.4862,400.79993,567.4037,400.7576,567.3679C400.61606,567.24915,400.0541,567.1333,399.82132,567.1714C399.70053,567.1909,399.51678,567.18945,399.4144,567.16785C399.24487,567.13025,398.78433,567.1144,398.34875,567.1356C398.25726,567.1394,398.07553,567.16455,397.9334,567.1904C397.79633,567.22,397.55087,567.2639,397.39154,567.2909C397.23172,567.31824,397.09064,567.3523,397.075,567.3712C397.06305,567.3856,396.90692,567.4474,396.7281,567.5077C396.546,567.5714,396.19492,567.751,395.947,567.922C395.6949,568.08887,395.4181,568.2666,395.33002,568.31384C395.23892,568.3655,395.09225,568.4928,395.00165,568.60095C394.91055,568.7095,394.71515,568.8762,394.56198,568.9728C394.30978,569.1393,394.13223,569.3031,392.92258,570.50916C392.4573,570.97815,392.2256,571.3231,392.27374,571.47595C392.30905,571.5781,391.88364,572.05774,391.6807,572.13684C391.57977,572.18066,391.45428,572.19666,391.40115,572.18335C391.3636,572.1703,391.32468,572.1509,391.28595,572.12683L391.28595,572.12683C391.29047,572.1138,391.29504,572.1007,391.29956,572.08765L392.63672,568.2488L391.77942,567.3307L391.42172,566.94763C390.7603,566.22876,389.9767,565.3013,389.68192,564.8772C389.53943,564.6749,389.40488,564.47437,389.27823,564.27527L389.2756,564.2727L389.38763,562.7479L388.3219,562.083L388.14075,561.97L388.14075,561.97C387.9236,561.3335,387.79788,560.71436,387.76358,560.1117C387.72202,559.3804,387.81506,558.6736,388.04285,557.99023C388.32327,557.13464,388.74023,556.5021,389.5238,555.7185C390.76746,554.47485,392.2484,553.84216,394.69266,553.48267C399.44452,552.7854,401.00446,552.0736,401.86713,550.1902C402.00378,549.8954,402.10443,549.5503,402.0972,549.4138C402.06845,548.72375,401.2274,547.36487,399.58826,545.35205C399.13416,544.7954,397.01425,542.6028,394.7822,540.345C394.19785,539.7538,393.6058,539.1583,393.03397,538.5864 Z"/> </g> </g> </svg>